SarahAnne-Regular.ufo
<glyph name="exclam" format="1">
  <advance width="337"/>
  <unicode hex="0021"/>
  <outline>
    <contour>
      <point x="84" y="524" type="curve" smooth="yes"/>
      <point x="72" y="681"/>
      <point x="102" y="815"/>
      <point x="137" y="818" type="curve" smooth="yes"/>
      <point x="235" y="826"/>
      <point x="183.827" y="633"/>
      <point x="195.827" y="476" type="curve" smooth="yes"/>
      <point x="207.827" y="319"/>
      <point x="247.827" y="192"/>
      <point x="164" y="233" type="curve" smooth="yes"/>
      <point x="132.817" y="248.252"/>
      <point x="96" y="367"/>
    </contour>
    <contour>
      <point x="111.009" y="26.6699" type="curve" smooth="yes"/>
      <point x="102.049" y="59.6904"/>
      <point x="123.809" y="102.87"/>
      <point x="166.049" y="114.3" type="curve" smooth="yes"/>
      <point x="208.288" y="125.73"/>
      <point x="244.128" y="124.46"/>
      <point x="253.089" y="91.4404" type="curve" smooth="yes"/>
      <point x="262.049" y="58.4199"/>
      <point x="253.089" y="33.0195"/>
      <point x="196.769" y="6.34961" type="curve" smooth="yes"/>
      <point x="157.089" y="-12.7002"/>
      <point x="119.969" y="-6.34961"/>
    </contour>
  </outline>
</glyph>
<glyph name="quotedbl" format="1">
  <advance width="335"/>
  <unicode hex="0022"/>
  <outline>
    <contour>
      <point x="203.645" y="713" type="curve" smooth="yes"/>
      <point x="203.645" y="791"/>
      <point x="170.645" y="826"/>
      <point x="210.645" y="826" type="curve" smooth="yes"/>
      <point x="257.645" y="826"/>
      <point x="280.645" y="802"/>
      <point x="280.645" y="724" type="curve" smooth="yes"/>
      <point x="280.645" y="646"/>
      <point x="253.645" y="590"/>
      <point x="230.645" y="590" type="curve" smooth="yes"/>
      <point x="190.645" y="590"/>
      <point x="203.645" y="635"/>
    </contour>
    <contour>
      <point x="63" y="699" type="curve" smooth="yes"/>
      <point x="63" y="777"/>
      <point x="30" y="812"/>
      <point x="70" y="812" type="curve" smooth="yes"/>
      <point x="117" y="812"/>
      <point x="149" y="795"/>
      <point x="149" y="717" type="curve" smooth="yes"/>
      <point x="149" y="639"/>
      <point x="113" y="576"/>
      <point x="90" y="576" type="curve" smooth="yes"/>
      <point x="50" y="576"/>
      <point x="63" y="621"/>
    </contour>
  </outline>
</glyph>
<glyph name="numbersign" format="1">
  <advance width="801"/>
  <unicode hex="0023"/>
  <outline>
    <contour>
      <point x="136.099" y="493.233" type="curve" smooth="yes"/>
      <point x="137.1" y="455.233"/>
      <point x="197.174" y="461.527"/>
      <point x="336.82" y="470" type="curve" smooth="yes"/>
      <point x="476.468" y="478.472"/>
      <point x="757.888" y="477.845"/>
      <point x="748.82" y="516" type="curve" smooth="yes"/>
      <point x="743.842" y="535.627"/>
      <point x="498.383" y="555.783"/>
      <point x="350.099" y="551.233" type="curve" smooth="yes"/>
      <point x="209.875" y="546.845"/>
      <point x="134.594" y="550.432"/>
    </contour>
    <contour>
      <point x="42.0986" y="261.233" type="curve" smooth="yes"/>
      <point x="43.0996" y="223.233"/>
      <point x="103.174" y="229.527"/>
      <point x="242.82" y="238" type="curve" smooth="yes"/>
      <point x="382.468" y="246.472"/>
      <point x="691.166" y="235.078"/>
      <point x="682.099" y="273.233" type="curve" smooth="yes"/>
      <point x="677.12" y="292.86"/>
      <point x="404.383" y="323.783"/>
      <point x="256.099" y="319.233" type="curve" smooth="yes"/>
      <point x="115.875" y="314.845"/>
      <point x="40.5938" y="318.432"/>
    </contour>
    <contour>
      <point x="576.022" y="721.308" type="curve" smooth="yes"/>
      <point x="561.333" y="646.751"/>
      <point x="556.817" y="637.608"/>
      <point x="478.438" y="415.375" type="curve" smooth="yes"/>
      <point x="429.867" y="277.656"/>
      <point x="369.724" y="125.714"/>
      <point x="381.672" y="50.8037" type="curve" smooth="yes"/>
      <point x="390.518" y="-4.65039"/>
      <point x="454.881" y="2.24121"/>
      <point x="453.104" y="16.4316" type="curve" smooth="yes"/>
      <point x="448.103" y="56.3691"/>
      <point x="482.3" y="165.359"/>
      <point x="559.41" y="384" type="curve" smooth="yes"/>
      <point x="636.521" y="602.641"/>
      <point x="692.448" y="742.834"/>
      <point x="679.733" y="789.137" type="curve" smooth="yes"/>
      <point x="666.936" y="835.741"/>
      <point x="585.365" y="768.726"/>
    </contour>
    <contour>
      <point x="348.022" y="721.308" type="curve" smooth="yes"/>
      <point x="333.333" y="646.751"/>
      <point x="328.817" y="637.608"/>
      <point x="250.438" y="415.375" type="curve" smooth="yes"/>
      <point x="201.867" y="277.656"/>
      <point x="141.724" y="125.714"/>
      <point x="153.672" y="50.8037" type="curve" smooth="yes"/>
      <point x="162.518" y="-4.65039"/>
      <point x="226.881" y="2.24121"/>
      <point x="225.104" y="16.4316" type="curve" smooth="yes"/>
      <point x="220.103" y="56.3691"/>
      <point x="254.3" y="165.359"/>
      <point x="331.41" y="384" type="curve" smooth="yes"/>
      <point x="408.521" y="602.641"/>
      <point x="464.448" y="742.834"/>
      <point x="451.733" y="789.137" type="curve" smooth="yes"/>
      <point x="438.936" y="835.741"/>
      <point x="357.365" y="768.726"/>
    </contour>
  </outline>
</glyph>
<glyph name="percent" format="1">
  <advance width="667"/>
  <unicode hex="0025"/>
  <outline>
    <contour>
      <point x="452.926" y="194.92" type="curve" smooth="yes"/>
      <point x="452.926" y="170.742"/>
      <point x="457.434" y="158.2"/>
      <point x="481.61" y="158.2" type="curve" smooth="yes"/>
      <point x="505.788" y="158.2"/>
      <point x="527.41" y="191.822"/>
      <point x="527.41" y="216" type="curve" smooth="yes"/>
      <point x="527.41" y="240.178"/>
      <point x="515.376" y="244.88"/>
      <point x="491.198" y="244.88" type="curve" smooth="yes"/>
      <point x="467.021" y="244.88"/>
      <point x="452.926" y="219.098"/>
    </contour>
    <contour>
      <point x="387.938" y="191.84" type="curve" smooth="yes"/>
      <point x="387.938" y="256.976"/>
      <point x="435.274" y="316"/>
      <point x="500.41" y="316" type="curve" smooth="yes"/>
      <point x="565.547" y="316"/>
      <point x="594.926" y="280.056"/>
      <point x="594.926" y="214.92" type="curve" smooth="yes"/>
      <point x="594.926" y="149.784"/>
      <point x="542.062" y="94.9199"/>
      <point x="476.926" y="94.9199" type="curve" smooth="yes"/>
      <point x="411.79" y="94.9199"/>
      <point x="387.938" y="126.704"/>
    </contour>
    <contour>
      <point x="164.41" y="576" type="curve" smooth="yes"/>
      <point x="164.41" y="551.822"/>
      <point x="168.918" y="539.28"/>
      <point x="193.095" y="539.28" type="curve" smooth="yes"/>
      <point x="217.272" y="539.28"/>
      <point x="238.895" y="572.902"/>
      <point x="238.895" y="597.08" type="curve" smooth="yes"/>
      <point x="238.895" y="621.258"/>
      <point x="233.376" y="634.88"/>
      <point x="209.198" y="634.88" type="curve" smooth="yes"/>
      <point x="185.021" y="634.88"/>
      <point x="164.41" y="600.178"/>
    </contour>
    <contour>
      <point x="99.4219" y="572.92" type="curve" smooth="yes"/>
      <point x="99.4219" y="638.056"/>
      <point x="153.274" y="706"/>
      <point x="218.41" y="706" type="curve" smooth="yes"/>
      <point x="283.547" y="706"/>
      <point x="306.41" y="661.136"/>
      <point x="306.41" y="596" type="curve" smooth="yes"/>
      <point x="306.41" y="530.864"/>
      <point x="253.547" y="476"/>
      <point x="188.41" y="476" type="curve" smooth="yes"/>
      <point x="123.274" y="476"/>
      <point x="99.4219" y="507.784"/>
    </contour>
    <contour>
      <point x="402.41" y="724.961" type="curve" smooth="yes"/>
      <point x="387.721" y="650.404"/>
      <point x="383.205" y="641.262"/>
      <point x="304.826" y="419.028" type="curve" smooth="yes"/>
      <point x="256.255" y="281.31"/>
      <point x="196.111" y="129.367"/>
      <point x="208.06" y="54.457" type="curve" smooth="yes"/>
      <point x="216.905" y="-0.99707"/>
      <point x="281.269" y="5.89453"/>
      <point x="279.491" y="20.085" type="curve" smooth="yes"/>
      <point x="274.49" y="60.0225"/>
      <point x="308.688" y="169.013"/>
      <point x="385.798" y="387.653" type="curve" smooth="yes"/>
      <point x="462.908" y="606.294"/>
      <point x="518.836" y="746.487"/>
      <point x="506.121" y="792.79" type="curve" smooth="yes"/>
      <point x="493.323" y="839.395"/>
      <point x="411.753" y="772.379"/>
    </contour>
  </outline>
</glyph>
<glyph name="ampersand" format="1">
  <advance width="696"/>
  <unicode hex="0026"/>
  <outline>
    <contour>
      <point x="198" y="188" type="curve" smooth="yes"/>
      <point x="176.304" y="156.026"/>
      <point x="217.326" y="95.3447"/>
      <point x="238.139" y="92.7402" type="curve" smooth="yes"/>
      <point x="292" y="86"/>
      <point x="365.861" y="129.26"/>
      <point x="378" y="186" type="curve" smooth="yes"/>
      <point x="386.084" y="223.785"/>
      <point x="343.219" y="283.482"/>
      <point x="325.861" y="295.26" type="curve" smooth="yes"/>
      <point x="308.504" y="307.038"/>
      <point x="219.696" y="219.974"/>
    </contour>
    <contour>
      <point x="276" y="628" type="curve" smooth="yes"/>
      <point x="276" y="582.348"/>
      <point x="338" y="476"/>
      <point x="358" y="444" type="curve"/>
      <point x="410" y="472"/>
      <point x="478" y="520"/>
      <point x="470" y="592" type="curve" smooth="yes"/>
      <point x="458.065" y="699.413"/>
      <point x="388" y="706"/>
      <point x="348" y="708" type="curve" smooth="yes"/>
      <point x="320.435" y="709.378"/>
      <point x="276" y="673.652"/>
    </contour>
    <contour>
      <point x="268" y="400" type="curve" smooth="yes"/>
      <point x="159.385" y="599.811"/>
      <point x="150" y="636"/>
      <point x="186" y="724" type="curve" smooth="yes"/>
      <point x="238.847" y="853.181"/>
      <point x="489.961" y="837.984"/>
      <point x="552" y="682" type="curve" smooth="yes"/>
      <point x="622" y="506"/>
      <point x="484" y="442"/>
      <point x="428" y="346" type="curve"/>
      <point x="434.27" y="334.466"/>
      <point x="436.211" y="286.799"/>
      <point x="456" y="294" type="curve" smooth="yes"/>
      <point x="506.987" y="312.554"/>
      <point x="573.521" y="408.235"/>
      <point x="576" y="378" type="curve" smooth="yes"/>
      <point x="586" y="256"/>
      <point x="522" y="236"/>
      <point x="506" y="190" type="curve"/>
      <point x="540" y="98"/>
      <point x="660.511" y="0"/>
      <point x="600" y="0" type="curve" smooth="yes"/>
      <point x="492" y="0"/>
      <point x="462" y="48"/>
      <point x="436" y="100" type="curve"/>
      <point x="334" y="-64"/>
      <point x="126" y="-20"/>
      <point x="88" y="134" type="curve" smooth="yes"/>
      <point x="51.1436" y="283.364"/>
      <point x="286.325" y="366.289"/>
    </contour>
  </outline>
</glyph>
<glyph name="quotesingle" format="1">
  <advance width="155"/>
  <unicode hex="0027"/>
  <outline>
    <contour>
      <point x="61" y="721" type="curve" smooth="yes"/>
      <point x="61" y="799"/>
      <point x="28" y="834"/>
      <point x="68" y="834" type="curve" smooth="yes"/>
      <point x="115" y="834"/>
      <point x="147" y="817"/>
      <point x="147" y="739" type="curve" smooth="yes"/>
      <point x="147" y="661"/>
      <point x="111" y="598"/>
      <point x="88" y="598" type="curve" smooth="yes"/>
      <point x="48" y="598"/>
      <point x="61" y="643"/>
    </contour>
  </outline>
</glyph>
<glyph name="parenleft" format="1">
  <advance width="399"/>
  <unicode hex="0028"/>
  <outline>
    <contour>
      <point x="194.883" y="752" type="curve" smooth="yes"/>
      <point x="155.369" y="687.039"/>
      <point x="88.7979" y="537.035"/>
      <point x="86.8828" y="301.394" type="curve" smooth="yes"/>
      <point x="85.708" y="156.85"/>
      <point x="175.532" y="-19.4004"/>
      <point x="221.326" y="-79.875" type="curve" smooth="yes"/>
      <point x="255.228" y="-124.643"/>
      <point x="335.941" y="-98.2354"/>
      <point x="312.883" y="-70" type="curve" smooth="yes"/>
      <point x="287.424" y="-38.8252"/>
      <point x="180.883" y="155.394"/>
      <point x="182" y="332" type="curve" smooth="yes"/>
      <point x="183.467" y="563.835"/>
      <point x="312.822" y="746.487"/>
      <point x="300.107" y="792.79" type="curve" smooth="yes"/>
      <point x="288.453" y="835.232"/>
      <point x="222.417" y="797.268"/>
    </contour>
  </outline>
</glyph>
<glyph name="parenright" format="1">
  <advance width="399"/>
  <unicode hex="0029"/>
  <outline>
    <contour>
      <point x="204.883" y="752" type="curve" smooth="yes"/>
      <point x="244.396" y="687.039"/>
      <point x="310.968" y="541.642"/>
      <point x="312.883" y="306" type="curve" smooth="yes"/>
      <point x="314.058" y="161.456"/>
      <point x="224.233" y="-24.0068"/>
      <point x="178.439" y="-84.4814" type="curve" smooth="yes"/>
      <point x="144.538" y="-129.249"/>
      <point x="63.8242" y="-102.842"/>
      <point x="86.8828" y="-74.6064" type="curve" smooth="yes"/>
      <point x="112.342" y="-43.4316"/>
      <point x="218.883" y="160"/>
      <point x="217.766" y="336.606" type="curve" smooth="yes"/>
      <point x="216.299" y="568.441"/>
      <point x="86.9434" y="746.487"/>
      <point x="99.6582" y="792.79" type="curve" smooth="yes"/>
      <point x="111.312" y="835.232"/>
      <point x="177.349" y="797.268"/>
    </contour>
  </outline>
</glyph>
<glyph name="asterisk" format="1">
  <advance width="527"/>
  <unicode hex="002A"/>
  <outline>
    <contour>
      <point x="172.902" y="325.675" type="curve" smooth="yes"/>
      <point x="172.902" y="352.45"/>
      <point x="71.0898" y="346.075"/>
      <point x="72.4473" y="395.8" type="curve" smooth="yes"/>
      <point x="73.1797" y="422.597"/>
      <point x="203.597" y="396.935"/>
      <point x="208.197" y="414.925" type="curve" smooth="yes"/>
      <point x="226.984" y="488.367"/>
      <point x="241.858" y="536.05"/>
      <point x="272" y="536.05" type="curve" smooth="yes"/>
      <point x="311.368" y="536.05"/>
      <point x="308.915" y="428.786"/>
      <point x="333.088" y="413.65" type="curve" smooth="yes"/>
      <point x="357.522" y="398.35"/>
      <point x="453.265" y="423.874"/>
      <point x="452.548" y="399.625" type="curve" smooth="yes"/>
      <point x="451.19" y="353.725"/>
      <point x="345.585" y="344.844"/>
      <point x="344" y="324" type="curve" smooth="yes"/>
      <point x="342.643" y="306.15"/>
      <point x="417.253" y="190.525"/>
      <point x="362.953" y="186.7" type="curve" smooth="yes"/>
      <point x="343.721" y="185.346"/>
      <point x="290" y="279"/>
      <point x="267" y="297" type="curve"/>
      <point x="242" y="281"/>
      <point x="190.55" y="171.4"/>
      <point x="155.255" y="189.25" type="curve" smooth="yes"/>
      <point x="128.5" y="202.78"/>
      <point x="172.902" y="294.926"/>
    </contour>
  </outline>
</glyph>
<glyph name="plus" format="1">
  <advance width="629"/>
  <unicode hex="002B"/>
  <outline>
    <contour>
      <point x="66.9199" y="239.469" type="curve" smooth="yes"/>
      <point x="74.9199" y="192.469"/>
      <point x="181.92" y="256.469"/>
      <point x="319.92" y="279.469" type="curve" smooth="yes"/>
      <point x="457.92" y="302.469"/>
      <point x="587.92" y="276.469"/>
      <point x="574.92" y="313.469" type="curve" smooth="yes"/>
      <point x="567.92" y="332.469"/>
      <point x="465.92" y="360.469"/>
      <point x="318.92" y="340.469" type="curve" smooth="yes"/>
      <point x="179.92" y="321.469"/>
      <point x="52.9199" y="323.469"/>
    </contour>
    <contour>
      <point x="352.92" y="8.46875" type="curve"/>
      <point x="377.92" y="3.46875"/>
      <point x="344.92" y="108.469"/>
      <point x="341.92" y="121.469" type="curve" smooth="yes"/>
      <point x="311.92" y="279.469"/>
      <point x="443.92" y="525.469"/>
      <point x="378.92" y="565.469" type="curve" smooth="yes"/>
      <point x="293.92" y="618.469"/>
      <point x="237.92" y="330.469"/>
      <point x="229.92" y="163.469" type="curve" smooth="yes"/>
      <point x="225.92" y="86.4688"/>
      <point x="279.92" y="26.4688"/>
    </contour>
  </outline>
</glyph>
<glyph name="comma" format="1">
  <advance width="227"/>
  <unicode hex="002C"/>
  <outline>
    <contour>
      <point x="50" y="-50" type="curve" smooth="yes"/>
      <point x="63.3262" y="19.9863"/>
      <point x="74.6875" y="58.459"/>
      <point x="122.326" y="57.9863" type="curve" smooth="yes"/>
      <point x="170.377" y="57.5107"/>
      <point x="178.326" y="31.9863"/>
      <point x="170.326" y="-31.0137" type="curve" smooth="yes"/>
      <point x="162.326" y="-94.0137"/>
      <point x="109.326" y="-147"/>
      <point x="81.3262" y="-143" type="curve" smooth="yes"/>
      <point x="53.3262" y="-139"/>
      <point x="38.7383" y="-109.146"/>
    </contour>
  </outline>
</glyph>
<glyph name="hyphen" format="1">
  <advance width="617"/>
  <unicode hex="002D"/>
  <outline>
    <contour>
      <point x="54.9688" y="226.964" type="curve" smooth="yes"/>
      <point x="49.8125" y="311.967"/>
      <point x="175.91" y="296.724"/>
      <point x="316.134" y="301.112" type="curve" smooth="yes"/>
      <point x="464.418" y="305.662"/>
      <point x="562.939" y="267.17"/>
      <point x="567.918" y="247.543" type="curve" smooth="yes"/>
      <point x="576.985" y="209.388"/>
      <point x="441.952" y="219.536"/>
      <point x="302.305" y="211.064" type="curve" smooth="yes"/>
      <point x="162.658" y="202.592"/>
      <point x="58.0205" y="179.386"/>
    </contour>
  </outline>
</glyph>
<glyph name="period" format="1">
  <advance width="254"/>
  <unicode hex="002E"/>
  <outline>
    <contour>
      <point x="55.75" y="44.0303" type="curve" smooth="yes"/>
      <point x="55.75" y="76.1602"/>
      <point x="86.7998" y="108.29"/>
      <point x="125.9" y="108.29" type="curve" smooth="yes"/>
      <point x="165" y="108.29"/>
      <point x="194.9" y="96.3896"/>
      <point x="194.9" y="64.2598" type="curve" smooth="yes"/>
      <point x="194.9" y="32.1299"/>
      <point x="179.95" y="11.9004"/>
      <point x="123.6" y="2.37988" type="curve" smooth="yes"/>
      <point x="85.6504" y="-3.57031"/>
      <point x="55.75" y="11.9004"/>
    </contour>
  </outline>
</glyph>
<glyph name="slash" format="1">
  <advance width="455"/>
  <unicode hex="002F"/>
  <outline>
    <contour>
      <point x="267.514" y="724.961" type="curve" smooth="yes"/>
      <point x="252.824" y="650.404"/>
      <point x="248.309" y="641.262"/>
      <point x="169.93" y="419.028" type="curve" smooth="yes"/>
      <point x="121.358" y="281.31"/>
      <point x="61.2148" y="129.367"/>
      <point x="73.1631" y="54.457" type="curve" smooth="yes"/>
      <point x="82.0088" y="-0.99707"/>
      <point x="160.372" y="5.89453"/>
      <point x="158.595" y="20.085" type="curve" smooth="yes"/>
      <point x="153.594" y="60.0225"/>
      <point x="187.791" y="169.013"/>
      <point x="264.901" y="387.653" type="curve" smooth="yes"/>
      <point x="342.012" y="606.294"/>
      <point x="397.939" y="746.487"/>
      <point x="385.225" y="792.79" type="curve" smooth="yes"/>
      <point x="371.193" y="843.881"/>
      <point x="277.755" y="776.945"/>
    </contour>
  </outline>
</glyph>
<glyph name="zero" format="1">
  <advance width="543"/>
  <unicode hex="0030"/>
  <outline>
    <contour>
      <point x="73.9053" y="413.838" type="curve" smooth="yes"/>
      <point x="87.2568" y="606.858"/>
      <point x="148.272" y="836.865"/>
      <point x="258.273" y="816.865" type="curve" smooth="yes"/>
      <point x="401.684" y="790.791"/>
      <point x="478.862" y="448.915"/>
      <point x="462.217" y="249.154" type="curve" smooth="yes"/>
      <point x="444.765" y="39.6953"/>
      <point x="336.526" y="-20.2354"/>
      <point x="225.981" y="2.16504" type="curve" smooth="yes"/>
      <point x="130.016" y="21.6104"/>
      <point x="59.4023" y="204.179"/>
    </contour>
    <contour>
      <point x="174.435" y="384.305" type="curve" smooth="yes"/>
      <point x="169.681" y="230.454"/>
      <point x="227.85" y="131.365"/>
      <point x="257.658" y="125.845" type="curve" smooth="yes"/>
      <point x="320.208" y="114.265"/>
      <point x="346.829" y="191.466"/>
      <point x="353.086" y="320" type="curve" smooth="yes"/>
      <point x="359.29" y="447.405"/>
      <point x="323.29" y="647.848"/>
      <point x="262.18" y="661.433" type="curve" smooth="yes"/>
      <point x="212.006" y="672.586"/>
      <point x="178.407" y="512.908"/>
    </contour>
  </outline>
</glyph>
<glyph name="one" format="1">
  <advance width="416"/>
  <unicode hex="0031"/>
  <outline>
    <contour>
      <point x="162.141" y="342.03" type="curve" smooth="yes"/>
      <point x="133.07" y="584.276"/>
      <point x="68.8887" y="806.226"/>
      <point x="145.619" y="815.434" type="curve" smooth="yes"/>
      <point x="222.349" y="824.641"/>
      <point x="224.653" y="845.046"/>
      <point x="253.724" y="602.799" type="curve" smooth="yes"/>
      <point x="282.793" y="360.553"/>
      <point x="300" y="0"/>
      <point x="255.63" y="-5.3916" type="curve" smooth="yes"/>
      <point x="178.913" y="-14.7139"/>
      <point x="191.21" y="99.7832"/>
    </contour>
  </outline>
</glyph>
<glyph name="two" format="1">
  <advance width="696"/>
  <unicode hex="0032"/>
  <outline>
    <contour>
      <point x="273.926" y="697.631" type="curve" smooth="yes"/>
      <point x="235.963" y="725.449"/>
      <point x="166.307" y="639.3"/>
      <point x="138.586" y="646.9" type="curve" smooth="yes"/>
      <point x="101.395" y="657.097"/>
      <point x="108.721" y="716.086"/>
      <point x="131.976" y="748.062" type="curve" smooth="yes"/>
      <point x="163.975" y="792.061"/>
      <point x="196.435" y="816.062"/>
      <point x="261.976" y="816.062" type="curve" smooth="yes"/>
      <point x="342.873" y="816.062"/>
      <point x="447.467" y="679.53"/>
      <point x="447.467" y="554.462" type="curve" smooth="yes"/>
      <point x="447.467" y="369.113"/>
      <point x="330.274" y="261.291"/>
      <point x="289.976" y="106.062" type="curve"/>
      <point x="381.754" y="94.0918"/>
      <point x="555.085" y="249.23"/>
      <point x="641.507" y="247.9" type="curve" smooth="yes"/>
      <point x="669.686" y="247.467"/>
      <point x="662.308" y="170.211"/>
      <point x="630.325" y="146.631" type="curve" smooth="yes"/>
      <point x="520.778" y="65.8662"/>
      <point x="410.546" y="25.5303"/>
      <point x="311.545" y="4.63086" type="curve" smooth="yes"/>
      <point x="256.496" y="-6.99121"/>
      <point x="177.095" y="-3.22656"/>
      <point x="172.246" y="33.7002" type="curve" smooth="yes"/>
      <point x="157.105" y="149.03"/>
      <point x="225.162" y="217.471"/>
      <point x="277.187" y="342.9" type="curve" smooth="yes"/>
      <point x="327.386" y="463.931"/>
      <point x="382.825" y="617.831"/>
    </contour>
  </outline>
</glyph>
<glyph name="three" format="1">
  <advance width="532"/>
  <unicode hex="0033"/>
  <outline>
    <contour>
      <point x="273.489" y="432.4" type="curve"/>
      <point x="305.489" y="492.4"/>
      <point x="395.436" y="618.369"/>
      <point x="375.489" y="712.4" type="curve" smooth="yes"/>
      <point x="361.489" y="778.399"/>
      <point x="309.812" y="816"/>
      <point x="173" y="816" type="curve" smooth="yes"/>
      <point x="113.418" y="816"/>
      <point x="63.2002" y="798.693"/>
      <point x="63.2002" y="768.061" type="curve" smooth="yes"/>
      <point x="63.2002" y="750.036"/>
      <point x="53.4785" y="721.095"/>
      <point x="87.29" y="715.62" type="curve" smooth="yes"/>
      <point x="112.489" y="711.54"/>
      <point x="188.207" y="731.306"/>
      <point x="225.489" y="726.4" type="curve" smooth="yes"/>
      <point x="301.489" y="716.399"/>
      <point x="265.199" y="625.34"/>
      <point x="231" y="557" type="curve" smooth="yes"/>
      <point x="196.107" y="487.275"/>
      <point x="118.383" y="440.817"/>
      <point x="143" y="374" type="curve" smooth="yes"/>
      <point x="157" y="336"/>
      <point x="248.953" y="341.258"/>
      <point x="299.489" y="336.4" type="curve" smooth="yes"/>
      <point x="397.489" y="326.98"/>
      <point x="361.66" y="228.752"/>
      <point x="313.66" y="184.752" type="curve" smooth="yes"/>
      <point x="208.907" y="88.7285"/>
      <point x="95.4131" y="118.028"/>
      <point x="77.4893" y="30.4004" type="curve" smooth="yes"/>
      <point x="59.4893" y="-57.6006"/>
      <point x="336.271" y="59.2051"/>
      <point x="405.489" y="130.4" type="curve" smooth="yes"/>
      <point x="510.489" y="238.4"/>
      <point x="469.149" y="335.151"/>
      <point x="439.489" y="374.4" type="curve" smooth="yes"/>
      <point x="396.849" y="430.825"/>
      <point x="330.979" y="418.8"/>
    </contour>
  </outline>
</glyph>
<glyph name="four" format="1">
  <advance width="652"/>
  <unicode hex="0034"/>
  <outline>
    <contour>
      <point x="530.09" y="-2.70117" type="curve"/>
      <point x="574.616" y="1.1875"/>
      <point x="539.605" y="362.305"/>
      <point x="518.739" y="605.395" type="curve" smooth="yes"/>
      <point x="497.873" y="848.486"/>
      <point x="494.88" y="828.171"/>
      <point x="417.883" y="821.562" type="curve" smooth="yes"/>
      <point x="353.703" y="816.053"/>
      <point x="392.979" y="674.162"/>
      <point x="416.387" y="481.418" type="curve"/>
      <point x="317.705" y="437.571"/>
      <point x="279.517" y="344.117"/>
      <point x="214" y="414.22" type="curve" smooth="yes"/>
      <point x="194.688" y="434.885"/>
      <point x="203.531" y="817.803"/>
      <point x="153.56" y="819.492" type="curve" smooth="yes"/>
      <point x="15.6387" y="824.156"/>
      <point x="84.166" y="618.202"/>
      <point x="105.033" y="375.111" type="curve" smooth="yes"/>
      <point x="119.762" y="203.519"/>
      <point x="306.241" y="248.122"/>
      <point x="427.782" y="341.955" type="curve"/>
      <point x="450.185" y="235.137"/>
      <point x="431.537" y="-17.3789"/>
    </contour>
  </outline>
</glyph>
<glyph name="five" format="1">
  <advance width="582"/>
  <unicode hex="0035"/>
  <outline>
    <contour>
      <point x="106" y="22.5996" type="curve" smooth="yes"/>
      <point x="94.3699" y="-43.8583"/>
      <point x="407.868" y="83.4777"/>
      <point x="479.733" y="152" type="curve" smooth="yes"/>
      <point x="565.734" y="234"/>
      <point x="550.362" y="347.305"/>
      <point x="491.733" y="436" type="curve" smooth="yes"/>
      <point x="452.733" y="495"/>
      <point x="247.591" y="409.717"/>
      <point x="241.733" y="482" type="curve" smooth="yes"/>
      <point x="236.092" y="551.629"/>
      <point x="224" y="614.601"/>
      <point x="240" y="644.6" type="curve" smooth="yes"/>
      <point x="275.84" y="711.798"/>
      <point x="321.983" y="714.6"/>
      <point x="373.703" y="722.49" type="curve" smooth="yes"/>
      <point x="432.602" y="731.476"/>
      <point x="463.181" y="754.285"/>
      <point x="478.292" y="780.931" type="curve" smooth="yes"/>
      <point x="493.983" y="808.6"/>
      <point x="504.168" y="828.456"/>
      <point x="469.983" y="830.6" type="curve" smooth="yes"/>
      <point x="444.506" y="832.197"/>
      <point x="386.854" y="812.896"/>
      <point x="320.607" y="813.664" type="curve" smooth="yes"/>
      <point x="232.888" y="814.683"/>
      <point x="134" y="774.601"/>
      <point x="106" y="686.6" type="curve" smooth="yes"/>
      <point x="82.3604" y="612.303"/>
      <point x="119.385" y="456.791"/>
      <point x="146.457" y="390.93" type="curve" smooth="yes"/>
      <point x="173.5" y="325.145"/>
      <point x="364.885" y="379.24"/>
      <point x="402" y="344.6" type="curve" smooth="yes"/>
      <point x="456.868" y="293.39"/>
      <point x="375.138" y="213.678"/>
      <point x="302" y="172.6" type="curve" smooth="yes"/>
      <point x="208.914" y="120.318"/>
      <point x="120" y="102.6"/>
    </contour>
  </outline>
</glyph>
<glyph name="six" format="1">
  <advance width="748"/>
  <unicode hex="0036"/>
  <outline>
    <contour>
      <point x="534.514" y="284.562" type="curve" smooth="yes"/>
      <point x="537.8" y="324.656"/>
      <point x="578.101" y="377.443"/>
      <point x="595.706" y="376" type="curve" smooth="yes"/>
      <point x="625.605" y="373.549"/>
      <point x="636.978" y="316.43"/>
      <point x="623.09" y="269.407" type="curve" smooth="yes"/>
      <point x="612.771" y="234.467"/>
      <point x="560.816" y="170.438"/>
      <point x="544.342" y="176.81" type="curve" smooth="yes"/>
      <point x="527.868" y="183.182"/>
      <point x="531.538" y="248.252"/>
    </contour>
    <contour>
      <point x="383.111" y="119.973" type="curve" smooth="yes"/>
      <point x="185.763" y="119.973"/>
      <point x="178.196" y="350.579"/>
      <point x="205.706" y="496" type="curve" smooth="yes"/>
      <point x="228.514" y="616.562"/>
      <point x="261.706" y="694"/>
      <point x="285.706" y="784" type="curve" smooth="yes"/>
      <point x="298.007" y="830.128"/>
      <point x="181.278" y="820.262"/>
      <point x="159.706" y="776" type="curve" smooth="yes"/>
      <point x="84.835" y="622.376"/>
      <point x="72.5137" y="474.562"/>
      <point x="72.5137" y="346.562" type="curve" smooth="yes"/>
      <point x="72.5137" y="168.952"/>
      <point x="182.801" y="0"/>
      <point x="417.706" y="0" type="curve" smooth="yes"/>
      <point x="595.706" y="0"/>
      <point x="697.706" y="168"/>
      <point x="711.706" y="252" type="curve" smooth="yes"/>
      <point x="726.245" y="327.399"/>
      <point x="697.463" y="448"/>
      <point x="615.706" y="476" type="curve"/>
      <point x="533.526" y="504.763"/>
      <point x="446.657" y="417.329"/>
      <point x="434.514" y="332.562" type="curve" smooth="yes"/>
      <point x="423.937" y="258.728"/>
      <point x="458.951" y="119.973"/>
    </contour>
  </outline>
</glyph>
<glyph name="seven" format="1">
  <advance width="493"/>
  <unicode hex="0037"/>
  <outline>
    <contour>
      <point x="314" y="706" type="curve"/>
      <point x="262.532" y="690.631"/>
      <point x="161.186" y="650.435"/>
      <point x="77.7061" y="638" type="curve" smooth="yes"/>
      <point x="24" y="630"/>
      <point x="-26.2412" y="696.556"/>
      <point x="0" y="710" type="curve" smooth="yes"/>
      <point x="28.3252" y="724.513"/>
      <point x="81.1929" y="731.874"/>
      <point x="116" y="742" type="curve" smooth="yes"/>
      <point x="226" y="774"/>
      <point x="385.27" y="846.043"/>
      <point x="406.5" y="805.5" type="curve"/>
      <point x="432.294" y="765"/>
      <point x="420.156" y="614.552"/>
      <point x="410.891" y="382.896" type="curve" smooth="yes"/>
      <point x="401.624" y="151.242"/>
      <point x="401.059" y="37.0137"/>
      <point x="417.605" y="0.323242" type="curve" smooth="yes"/>
      <point x="423.484" y="-12.7139"/>
      <point x="350.631" y="-42.3887"/>
      <point x="325.839" y="7.99707" type="curve" smooth="yes"/>
      <point x="292.349" y="76.0615"/>
      <point x="305.054" y="238.979"/>
      <point x="310.891" y="384.896" type="curve" smooth="yes"/>
      <point x="320.31" y="620.357"/>
      <point x="321.931" y="630.425"/>
    </contour>
  </outline>
</glyph>
<glyph name="eight" format="1">
  <advance width="668"/>
  <unicode hex="0038"/>
  <outline>
    <contour>
      <point x="601.983" y="326.6" type="curve" smooth="yes"/>
      <point x="602.108" y="126.762"/>
      <point x="383.983" y="-31.3994"/>
      <point x="243.983" y="32.5996" type="curve" smooth="yes"/>
      <point x="154.931" y="73.3096"/>
      <point x="119.983" y="138.601"/>
      <point x="137.983" y="216.6" type="curve" smooth="yes"/>
      <point x="160.605" y="314.628"/>
      <point x="261.44" y="336.259"/>
      <point x="316.32" y="406.363" type="curve" smooth="yes"/>
      <point x="328.338" y="421.715"/>
      <point x="74.4004" y="399.99"/>
      <point x="76.6406" y="539.139" type="curve" smooth="yes"/>
      <point x="78.8799" y="657.043"/>
      <point x="242.4" y="801.502"/>
      <point x="416" y="810" type="curve" smooth="yes"/>
      <point x="530.24" y="815.311"/>
      <point x="545.92" y="718.551"/>
      <point x="545.92" y="650.67" type="curve" smooth="yes"/>
      <point x="545.92" y="637.935"/>
      <point x="505.561" y="487.309"/>
      <point x="449.601" y="444.603" type="curve"/>
      <point x="519.983" y="444.6"/>
      <point x="601.887" y="481.066"/>
    </contour>
    <contour>
      <point x="451.939" y="351.25" type="curve" smooth="yes"/>
      <point x="356.27" y="316.06"/>
      <point x="214.022" y="225.758"/>
      <point x="256.669" y="156.569" type="curve" smooth="yes"/>
      <point x="282.305" y="114.979"/>
      <point x="359.431" y="101.423"/>
      <point x="444.204" y="200.907" type="curve" smooth="yes"/>
      <point x="493.43" y="258.674"/>
      <point x="522.742" y="377.29"/>
    </contour>
    <contour>
      <point x="394.305" y="554.979" type="curve" smooth="yes"/>
      <point x="434.171" y="597.843"/>
      <point x="455.653" y="690.632"/>
      <point x="410.305" y="698.979" type="curve" smooth="yes"/>
      <point x="315.881" y="716.359"/>
      <point x="136.13" y="566.248"/>
      <point x="218.305" y="520.979" type="curve" smooth="yes"/>
      <point x="242.957" y="507.398"/>
      <point x="332.626" y="488.662"/>
    </contour>
  </outline>
</glyph>
<glyph name="nine" format="1">
  <advance width="620"/>
  <unicode hex="0039"/>
  <outline>
    <contour>
      <point x="191.179" y="654.924" type="curve" smooth="yes"/>
      <point x="225.938" y="706.052"/>
      <point x="294.903" y="708.6"/>
      <point x="315.901" y="694.324" type="curve" smooth="yes"/>
      <point x="336.9" y="680.048"/>
      <point x="334.743" y="657.728"/>
      <point x="299.983" y="606.6" type="curve" smooth="yes"/>
      <point x="265.225" y="555.473"/>
      <point x="194.178" y="536.647"/>
      <point x="173.179" y="550.924" type="curve" smooth="yes"/>
      <point x="152.18" y="565.2"/>
      <point x="156.42" y="603.797"/>
    </contour>
    <contour>
      <point x="311.901" y="818.324" type="curve" smooth="yes"/>
      <point x="158.594" y="818.324"/>
      <point x="57.1787" y="697.832"/>
      <point x="57.1787" y="518.924" type="curve" smooth="yes"/>
      <point x="57.1787" y="457.244"/>
      <point x="130.835" y="422.159"/>
      <point x="191.179" y="434.924" type="curve" smooth="yes"/>
      <point x="295.179" y="456.924"/>
      <point x="301.983" y="498.6"/>
      <point x="347.901" y="502.324" type="curve"/>
      <point x="357.901" y="400.324"/>
      <point x="349.983" y="404.6"/>
      <point x="357.983" y="266.6" type="curve" smooth="yes"/>
      <point x="362.764" y="184.131"/>
      <point x="381.105" y="85.2724"/>
      <point x="445.983" y="-5.40039" type="curve" smooth="yes"/>
      <point x="465.877" y="-33.2031"/>
      <point x="535.78" y="2.5127"/>
      <point x="523.983" y="34.5996" type="curve" smooth="yes"/>
      <point x="473.983" y="170.6"/>
      <point x="473.983" y="184.6"/>
      <point x="463.983" y="314.6" type="curve" smooth="yes"/>
      <point x="451.15" y="481.436"/>
      <point x="457.901" y="586.324"/>
      <point x="463.901" y="776.324" type="curve"/>
      <point x="454.69" y="809.422"/>
      <point x="409.016" y="763.174"/>
      <point x="375.901" y="772.324" type="curve" smooth="yes"/>
      <point x="346.273" y="780.511"/>
      <point x="342.64" y="818.324"/>
    </contour>
  </outline>
</glyph>
<glyph name="colon" format="1">
  <advance width="224"/>
  <unicode hex="003A"/>
  <outline>
    <contour>
      <point x="54.4756" y="120.028" type="curve" smooth="yes"/>
      <point x="57.8428" y="146.817"/>
      <point x="87.999" y="170.239"/>
      <point x="121.733" y="166" type="curve" smooth="yes"/>
      <point x="155.468" y="161.76"/>
      <point x="180.019" y="148.596"/>
      <point x="176.651" y="121.807" type="curve" smooth="yes"/>
      <point x="173.284" y="95.0166"/>
      <point x="158.266" y="79.7705"/>
      <point x="108.65" y="77.9434" type="curve" smooth="yes"/>
      <point x="75.2852" y="77.0977"/>
      <point x="51.1094" y="93.2383"/>
    </contour>
    <contour>
      <point x="54.7334" y="407.4" type="curve" smooth="yes"/>
      <point x="54.7334" y="434.4"/>
      <point x="81.7334" y="461.4"/>
      <point x="115.733" y="461.4" type="curve" smooth="yes"/>
      <point x="149.733" y="461.4"/>
      <point x="175.733" y="451.4"/>
      <point x="175.733" y="424.4" type="curve" smooth="yes"/>
      <point x="175.733" y="397.4"/>
      <point x="162.733" y="370.8"/>
      <point x="113.733" y="372.4" type="curve" smooth="yes"/>
      <point x="80.375" y="373.489"/>
      <point x="54.7334" y="380.4"/>
    </contour>
  </outline>
</glyph>
<glyph name="semicolon" format="1">
  <advance width="280"/>
  <unicode hex="003B"/>
  <outline>
    <contour>
      <point x="62.4795" y="410.6" type="curve" smooth="yes"/>
      <point x="62.4795" y="448.66"/>
      <point x="83.4863" y="450"/>
      <point x="128" y="450" type="curve" smooth="yes"/>
      <point x="172.514" y="450"/>
      <point x="208.64" y="450.63"/>
      <point x="208.64" y="412.57" type="curve" smooth="yes"/>
      <point x="208.64" y="374.51"/>
      <point x="190.78" y="361.691"/>
      <point x="146.267" y="361.691" type="curve" smooth="yes"/>
      <point x="101.753" y="361.691"/>
      <point x="62.4795" y="372.54"/>
    </contour>
    <contour>
      <point x="51.9717" y="-36.4717" type="curve"/>
      <point x="58.584" y="23.7861"/>
      <point x="77.8574" y="103.145"/>
      <point x="142.715" y="60.7148" type="curve"/>
      <point x="196.785" y="46.125"/>
      <point x="163.536" y="2.14453"/>
      <point x="137.899" y="-57.1113" type="curve" smooth="yes"/>
      <point x="112.263" y="-116.368"/>
      <point x="121.564" y="-144.976"/>
      <point x="87.9873" y="-135.64" type="curve" smooth="yes"/>
      <point x="54.4102" y="-126.303"/>
      <point x="43.1387" y="-95.374"/>
    </contour>
  </outline>
</glyph>
<glyph name="less" format="1">
  <advance width="464"/>
  <unicode hex="003C"/>
  <outline>
    <contour>
      <point x="393.328" y="644.171" type="curve" smooth="yes"/>
      <point x="408.018" y="569.614"/>
      <point x="188.589" y="408.972"/>
      <point x="188.589" y="368" type="curve" smooth="yes"/>
      <point x="188.589" y="322.972"/>
      <point x="387.73" y="129.367"/>
      <point x="375.782" y="54.457" type="curve" smooth="yes"/>
      <point x="366.937" y="-0.99707"/>
      <point x="287.84" y="5.80957"/>
      <point x="289.617" y="20" type="curve" smooth="yes"/>
      <point x="294.618" y="59.9375"/>
      <point x="70.6172" y="328.345"/>
      <point x="70.6172" y="372" type="curve" smooth="yes"/>
      <point x="70.6172" y="424.347"/>
      <point x="293.073" y="601.231"/>
      <point x="313.617" y="668" type="curve" smooth="yes"/>
      <point x="329.616" y="720"/>
      <point x="387.056" y="676.006"/>
    </contour>
  </outline>
</glyph>
<glyph name="equal" format="1">
  <advance width="663"/>
  <unicode hex="003D"/>
  <outline>
    <contour>
      <point x="84" y="400" type="curve" smooth="yes"/>
      <point x="78.8438" y="485.003"/>
      <point x="201.708" y="462"/>
      <point x="342" y="462" type="curve" smooth="yes"/>
      <point x="468" y="462"/>
      <point x="579.021" y="441.627"/>
      <point x="584" y="422" type="curve" smooth="yes"/>
      <point x="593.067" y="383.845"/>
      <point x="487.647" y="378.472"/>
      <point x="348" y="370" type="curve" smooth="yes"/>
      <point x="208.354" y="361.527"/>
      <point x="87.0518" y="352.422"/>
    </contour>
    <contour>
      <point x="78" y="236" type="curve" smooth="yes"/>
      <point x="76" y="310"/>
      <point x="193.776" y="281.611"/>
      <point x="334" y="286" type="curve" smooth="yes"/>
      <point x="482.284" y="290.55"/>
      <point x="571.021" y="265.627"/>
      <point x="576" y="246" type="curve" smooth="yes"/>
      <point x="585.067" y="207.845"/>
      <point x="459.818" y="204.424"/>
      <point x="320.171" y="195.952" type="curve" smooth="yes"/>
      <point x="180.524" y="187.479"/>
      <point x="79.2881" y="188.342"/>
    </contour>
  </outline>
</glyph>
<glyph name="greater" format="1">
  <advance width="472"/>
  <unicode hex="003E"/>
  <outline>
    <contour>
      <point x="70.6172" y="644.171" type="curve" smooth="yes"/>
      <point x="55.9277" y="569.614"/>
      <point x="275.356" y="408.972"/>
      <point x="275.356" y="368" type="curve" smooth="yes"/>
      <point x="275.356" y="322.972"/>
      <point x="76.2148" y="129.367"/>
      <point x="88.1631" y="54.457" type="curve" smooth="yes"/>
      <point x="97.0088" y="-0.99707"/>
      <point x="176.105" y="5.80957"/>
      <point x="174.328" y="20" type="curve" smooth="yes"/>
      <point x="169.327" y="59.9375"/>
      <point x="393.328" y="328.345"/>
      <point x="393.328" y="372" type="curve" smooth="yes"/>
      <point x="393.328" y="424.347"/>
      <point x="170.872" y="601.231"/>
      <point x="150.328" y="668" type="curve" smooth="yes"/>
      <point x="134.329" y="720"/>
      <point x="76.8896" y="676.006"/>
    </contour>
  </outline>
</glyph>
<glyph name="question" format="1">
  <advance width="380"/>
  <unicode hex="003F"/>
  <outline>
    <contour>
      <point x="109" y="446" type="curve" smooth="yes"/>
      <point x="141" y="551"/>
      <point x="220" y="556"/>
      <point x="220" y="623" type="curve" smooth="yes"/>
      <point x="220" y="644"/>
      <point x="210" y="717"/>
      <point x="159" y="717" type="curve" smooth="yes"/>
      <point x="59" y="717"/>
      <point x="21" y="643"/>
      <point x="10" y="674" type="curve" smooth="yes"/>
      <point x="-3" y="710"/>
      <point x="68" y="813"/>
      <point x="199" y="813" type="curve" smooth="yes"/>
      <point x="305" y="813"/>
      <point x="347" y="735"/>
      <point x="347" y="610" type="curve" smooth="yes"/>
      <point x="347" y="483"/>
      <point x="251" y="489"/>
      <point x="213" y="403" type="curve" smooth="yes"/>
      <point x="150" y="259"/>
      <point x="223" y="239"/>
      <point x="162" y="231" type="curve" smooth="yes"/>
      <point x="127" y="226"/>
      <point x="64" y="296"/>
    </contour>
    <contour>
      <point x="128" y="30" type="curve" smooth="yes"/>
      <point x="127" y="57"/>
      <point x="151" y="86"/>
      <point x="185" y="87" type="curve" smooth="yes"/>
      <point x="219" y="88"/>
      <point x="246" y="81"/>
      <point x="247" y="54" type="curve" smooth="yes"/>
      <point x="248" y="27"/>
      <point x="237" y="8"/>
      <point x="189" y="-2" type="curve" smooth="yes"/>
      <point x="156" y="-9"/>
      <point x="129" y="3"/>
    </contour>
  </outline>
</glyph>
<glyph name="at" format="1">
  <advance width="840"/>
  <unicode hex="0040"/>
  <outline>
    <contour>
      <point x="328.926" y="267.998" type="curve" smooth="yes"/>
      <point x="309.425" y="186.704"/>
      <point x="313.315" y="112"/>
      <point x="354.776" y="109.996" type="curve" smooth="yes"/>
      <point x="381.911" y="108.685"/>
      <point x="472.391" y="160.523"/>
      <point x="482.391" y="243.523" type="curve" smooth="yes"/>
      <point x="492.391" y="326.523"/>
      <point x="503.195" y="434.523"/>
      <point x="476.195" y="437.523" type="curve" smooth="yes"/>
      <point x="449.195" y="440.523"/>
      <point x="349.315" y="353"/>
    </contour>
    <contour>
      <point x="221.087" y="272.608" type="curve" smooth="yes"/>
      <point x="251.087" y="429.608"/>
      <point x="426.061" y="568.26"/>
      <point x="506.926" y="558.998" type="curve" smooth="yes"/>
      <point x="624.315" y="545.553"/>
      <point x="592.167" y="248.999"/>
      <point x="597.315" y="179" type="curve" smooth="yes"/>
      <point x="602.142" y="113.413"/>
      <point x="637.912" y="115.216"/>
      <point x="652" y="126.223" type="curve" smooth="yes"/>
      <point x="698.075" y="162.223"/>
      <point x="680.075" y="300.223"/>
      <point x="680.075" y="364.223" type="curve" smooth="yes"/>
      <point x="680.075" y="434.223"/>
      <point x="666.074" y="622.223"/>
      <point x="484" y="626.223" type="curve"/>
      <point x="397.725" y="628.564"/>
      <point x="243.902" y="492.212"/>
      <point x="202.075" y="394.223" type="curve" smooth="yes"/>
      <point x="165.271" y="308"/>
      <point x="128.745" y="139.216"/>
      <point x="167.271" y="36" type="curve" smooth="yes"/>
      <point x="196.467" y="-42.2227"/>
      <point x="247.875" y="-65.7949"/>
      <point x="327.271" y="-68" type="curve" smooth="yes"/>
      <point x="399.271" y="-70"/>
      <point x="557.228" y="14.5039"/>
      <point x="563.271" y="0" type="curve" smooth="yes"/>
      <point x="573.215" y="-23.8662"/>
      <point x="449.271" y="-136"/>
      <point x="334.195" y="-133.777" type="curve" smooth="yes"/>
      <point x="259.555" y="-132.335"/>
      <point x="125.314" y="-110.223"/>
      <point x="87.2705" y="10" type="curve" smooth="yes"/>
      <point x="50.4521" y="126.349"/>
      <point x="92.332" y="349.075"/>
      <point x="139.271" y="450" type="curve" smooth="yes"/>
      <point x="188.466" y="555.777"/>
      <point x="350" y="724.223"/>
      <point x="478" y="724.223" type="curve" smooth="yes"/>
      <point x="594" y="724.223"/>
      <point x="756" y="616.223"/>
      <point x="756" y="376.223" type="curve" smooth="yes"/>
      <point x="756" y="200.211"/>
      <point x="766" y="70"/>
      <point x="662" y="40.2227" type="curve" smooth="yes"/>
      <point x="596.627" y="21.5049"/>
      <point x="526.119" y="49.0596"/>
      <point x="509.075" y="84" type="curve"/>
      <point x="470.075" y="36"/>
      <point x="396.114" y="-2"/>
      <point x="315.075" y="-2" type="curve" smooth="yes"/>
      <point x="233.854" y="-2"/>
      <point x="191.087" y="115.608"/>
    </contour>
  </outline>
</glyph>
<glyph name="A" format="1">
  <advance width="699"/>
  <unicode hex="0041"/>
  <outline>
    <contour>
      <point x="578.759" y="411.323" type="curve" smooth="yes"/>
      <point x="607.073" y="424.48"/>
      <point x="589.477" y="491.161"/>
      <point x="558.349" y="488.733" type="curve" smooth="yes"/>
      <point x="413.295" y="477.424"/>
      <point x="332.865" y="443.178"/>
      <point x="200.921" y="381.862" type="curve" smooth="yes"/>
      <point x="177.921" y="371.174"/>
      <point x="151.648" y="313.764"/>
      <point x="190.309" y="317.703" type="curve" smooth="yes"/>
      <point x="350.492" y="334.022"/>
      <point x="437.438" y="345.651"/>
    </contour>
    <contour>
      <point x="540" y="567.296" type="curve" smooth="yes"/>
      <point x="505.903" y="685.478"/>
      <point x="468.902" y="822"/>
      <point x="354" y="822" type="curve" smooth="yes"/>
      <point x="268" y="822"/>
      <point x="257.859" y="664.693"/>
      <point x="220.902" y="554" type="curve" smooth="yes"/>
      <point x="152.365" y="348.719"/>
      <point x="-63.0834" y="13.9446"/>
      <point x="84.9023" y="16" type="curve" smooth="yes"/>
      <point x="228.902" y="18"/>
      <point x="348.064" y="591.199"/>
      <point x="384.902" y="644" type="curve"/>
      <point x="438.902" y="580"/>
      <point x="492.902" y="248"/>
      <point x="500.902" y="146" type="curve" smooth="yes"/>
      <point x="508.828" y="44.9326"/>
      <point x="489.109" y="8.29324"/>
      <point x="590" y="4" type="curve" smooth="yes"/>
      <point x="684" y="0"/>
      <point x="601.137" y="355.39"/>
    </contour>
  </outline>
</glyph>
<glyph name="B" format="1">
  <advance width="582"/>
  <unicode hex="0042"/>
  <outline>
    <contour>
      <point x="221.983" y="124.6" type="curve" smooth="yes"/>
      <point x="220.396" y="163.597"/>
      <point x="204.621" y="216.216"/>
      <point x="245.983" y="234.6" type="curve" smooth="yes"/>
      <point x="299.983" y="258.601"/>
      <point x="344.286" y="287.919"/>
      <point x="384.286" y="261.92" type="curve" smooth="yes"/>
      <point x="417.009" y="240.65"/>
      <point x="390.418" y="175.648"/>
      <point x="356.286" y="145.92" type="curve" smooth="yes"/>
      <point x="322.154" y="116.189"/>
      <point x="224.707" y="57.6807"/>
    </contour>
    <contour>
      <point x="386.286" y="365.92" type="curve"/>
      <point x="484.752" y="473.272"/>
      <point x="596" y="704.08"/>
      <point x="468.286" y="792" type="curve" smooth="yes"/>
      <point x="364.383" y="863.528"/>
      <point x="197.863" y="760.855"/>
      <point x="174.267" y="752.598" type="curve" smooth="yes"/>
      <point x="122.08" y="735.816"/>
      <point x="180.285" y="786"/>
      <point x="112.957" y="756.308" type="curve" smooth="yes"/>
      <point x="48.876" y="728.048"/>
      <point x="104.591" y="523.387"/>
      <point x="119.765" y="388" type="curve" smooth="yes"/>
      <point x="140.788" y="198.847"/>
      <point x="82.7916" y="0"/>
      <point x="183.983" y="0" type="curve" smooth="yes"/>
      <point x="332.286" y="0"/>
      <point x="422.286" y="31.9194"/>
      <point x="474.286" y="125.92" type="curve" smooth="yes"/>
      <point x="515.189" y="199.859"/>
      <point x="510.863" y="320.438"/>
    </contour>
    <contour>
      <point x="208.286" y="626" type="curve" smooth="yes"/>
      <point x="278.286" y="714.001"/>
      <point x="371.661" y="724.689"/>
      <point x="390.286" y="709.92" type="curve" smooth="yes"/>
      <point x="458.286" y="656"/>
      <point x="411.219" y="573.06"/>
      <point x="364.286" y="499.92" type="curve" smooth="yes"/>
      <point x="314.286" y="422"/>
      <point x="285.983" y="414.601"/>
      <point x="215.983" y="364.6" type="curve"/>
      <point x="221.983" y="414.601"/>
      <point x="186.014" y="598.001"/>
    </contour>
  </outline>
</glyph>
<glyph name="C" format="1">
  <advance width="485"/>
  <unicode hex="0043"/>
  <outline>
    <contour>
      <point x="453.422" y="159.314" type="curve" smooth="yes"/>
      <point x="420.123" y="275.788"/>
      <point x="363.746" y="74"/>
      <point x="271.746" y="108" type="curve" smooth="yes"/>
      <point x="217.896" y="127.901"/>
      <point x="143.033" y="200.367"/>
      <point x="151.746" y="400" type="curve" smooth="yes"/>
      <point x="159.746" y="583.296"/>
      <point x="268.338" y="707"/>
      <point x="325.746" y="707" type="curve" smooth="yes"/>
      <point x="350.95" y="707"/>
      <point x="363.377" y="717.6"/>
      <point x="407.377" y="675.6" type="curve"/>
      <point x="503.746" y="741"/>
      <point x="389.746" y="826"/>
      <point x="299.746" y="824" type="curve" smooth="yes"/>
      <point x="157.781" y="820.846"/>
      <point x="32.7461" y="596.281"/>
      <point x="32.7461" y="353.4" type="curve" smooth="yes"/>
      <point x="32.7461" y="110.521"/>
      <point x="171.451" y="0"/>
      <point x="274.123" y="0" type="curve" smooth="yes"/>
      <point x="376.795" y="0"/>
      <point x="479.951" y="66.5216"/>
    </contour>
  </outline>
</glyph>
<glyph name="D" format="1">
  <advance width="624"/>
  <unicode hex="0044"/>
  <outline>
    <contour>
      <point x="243.983" y="454.6" type="curve" smooth="yes"/>
      <point x="191.684" y="303.305"/>
      <point x="231.093" y="117.615"/>
      <point x="268.534" y="120.267" type="curve" smooth="yes"/>
      <point x="316.551" y="123.667"/>
      <point x="390.234" y="214.971"/>
      <point x="442.534" y="366.267" type="curve" smooth="yes"/>
      <point x="494.834" y="517.562"/>
      <point x="507.64" y="694.604"/>
      <point x="453" y="705" type="curve" smooth="yes"/>
      <point x="416.125" y="712.017"/>
      <point x="296.283" y="605.896"/>
    </contour>
    <contour>
      <point x="234" y="634" type="curve" smooth="yes"/>
      <point x="320" y="806"/>
      <point x="427.387" y="825.957"/>
      <point x="507.983" y="812.6" type="curve" smooth="yes"/>
      <point x="606.534" y="796.266"/>
      <point x="622.534" y="588.963"/>
      <point x="560.534" y="378.267" type="curve" smooth="yes"/>
      <point x="497.269" y="163.271"/>
      <point x="352.534" y="0"/>
      <point x="272.534" y="0" type="curve" smooth="yes"/>
      <point x="207.45" y="0"/>
      <point x="109" y="70.6006"/>
      <point x="109" y="282.6" type="curve" smooth="yes"/>
      <point x="109" y="372.601"/>
      <point x="131.134" y="470.007"/>
      <point x="123" y="576.6" type="curve" smooth="yes"/>
      <point x="116.175" y="666.035"/>
      <point x="47" y="746.6"/>
      <point x="111" y="746.6" type="curve" smooth="yes"/>
      <point x="243" y="746.6"/>
      <point x="226.542" y="619.084"/>
    </contour>
  </outline>
</glyph>
<glyph name="E" format="1">
  <advance width="685"/>
  <unicode hex="0045"/>
  <outline>
    <contour>
      <point x="394" y="827" type="curve" smooth="yes"/>
      <point x="496" y="832"/>
      <point x="513" y="692"/>
      <point x="478" y="674" type="curve" smooth="yes"/>
      <point x="433" y="650"/>
      <point x="400" y="697"/>
      <point x="350" y="712" type="curve"/>
      <point x="268" y="670"/>
      <point x="182" y="594"/>
      <point x="225" y="535" type="curve"/>
      <point x="329" y="522"/>
      <point x="468" y="603"/>
      <point x="492" y="501" type="curve" smooth="yes"/>
      <point x="511" y="418"/>
      <point x="266" y="297"/>
      <point x="255" y="119" type="curve" smooth="yes"/>
      <point x="249" y="24"/>
      <point x="459" y="266"/>
      <point x="556" y="291" type="curve" smooth="yes"/>
      <point x="709" y="331"/>
      <point x="347" y="-82"/>
      <point x="180" y="11" type="curve" smooth="yes"/>
      <point x="-50" y="139"/>
      <point x="307" y="258"/>
      <point x="307" y="434" type="curve" smooth="yes"/>
      <point x="307" y="452"/>
      <point x="91" y="428"/>
      <point x="93" y="559" type="curve" smooth="yes"/>
      <point x="95" y="670"/>
      <point x="239" y="819"/>
    </contour>
  </outline>
</glyph>
<glyph name="F" format="1">
  <advance width="486"/>
  <unicode hex="0046"/>
  <outline>
    <contour>
      <point x="201" y="-143.4" type="curve" smooth="yes"/>
      <point x="132.599" y="-110.034"/>
      <point x="127" y="-59.4004"/>
      <point x="103.465" y="342.769" type="curve" smooth="yes"/>
      <point x="87.4697" y="616.094"/>
      <point x="53.5339" y="831.387"/>
      <point x="119.522" y="839.897" type="curve" smooth="yes"/>
      <point x="162.735" y="845.471"/>
      <point x="176.352" y="550.313"/>
      <point x="193" y="272.6" type="curve" smooth="yes"/>
      <point x="202.349" y="116.656"/>
      <point x="283" y="-183.4"/>
    </contour>
    <contour>
      <point x="113.935" y="442.415" type="curve" smooth="yes"/>
      <point x="113.538" y="458.971"/>
      <point x="148.444" y="486.041"/>
      <point x="225" y="496.6" type="curve" smooth="yes"/>
      <point x="301.556" y="507.159"/>
      <point x="366.342" y="525.494"/>
      <point x="391.309" y="480.674" type="curve" smooth="yes"/>
      <point x="427" y="416.6"/>
      <point x="333.276" y="431.385"/>
      <point x="256.721" y="420.826" type="curve" smooth="yes"/>
      <point x="180.165" y="410.267"/>
      <point x="117" y="314.6"/>
    </contour>
    <contour>
      <point x="103" y="716.6" type="curve" smooth="yes"/>
      <point x="102.71" y="734.261"/>
      <point x="137.006" y="782.467"/>
      <point x="223" y="802.6" type="curve" smooth="yes"/>
      <point x="308.994" y="822.733"/>
      <point x="345" y="840.6"/>
      <point x="415" y="776.6" type="curve" smooth="yes"/>
      <point x="428.036" y="764.681"/>
      <point x="345.788" y="752.933"/>
      <point x="259.794" y="732.799" type="curve" smooth="yes"/>
      <point x="173.8" y="712.665"/>
      <point x="105" y="594.6"/>
    </contour>
  </outline>
</glyph>
<glyph name="G" format="1">
  <advance width="622"/>
  <unicode hex="0047"/>
  <outline>
    <contour>
      <point x="282.785" y="457.376" type="curve"/>
      <point x="306.352" y="385.701"/>
      <point x="369.868" y="443.636"/>
      <point x="465.378" y="467.76" type="curve"/>
      <point x="559.572" y="495.719"/>
      <point x="585.597" y="536.374"/>
      <point x="579" y="558.6" type="curve" smooth="yes"/>
      <point x="572.403" y="580.826"/>
      <point x="535.671" y="576.246"/>
      <point x="441.477" y="548.288" type="curve" smooth="yes"/>
      <point x="347.281" y="520.33"/>
      <point x="276.188" y="479.602"/>
    </contour>
    <contour>
      <point x="393" y="522.6" type="curve"/>
      <point x="329" y="430.601"/>
      <point x="368" y="514.095"/>
      <point x="368" y="402" type="curve" smooth="yes"/>
      <point x="368" y="202.177"/>
      <point x="300" y="35.4004"/>
      <point x="248" y="80" type="curve" smooth="yes"/>
      <point x="204.424" y="117.375"/>
      <point x="167" y="184.776"/>
      <point x="167" y="384.6" type="curve" smooth="yes"/>
      <point x="167" y="584.424"/>
      <point x="227.592" y="768.6"/>
      <point x="285" y="768.6" type="curve" smooth="yes"/>
      <point x="310.204" y="768.6"/>
      <point x="335" y="736.6"/>
      <point x="379" y="694.6" type="curve"/>
      <point x="546.67" y="673.841"/>
      <point x="332.763" y="838.6"/>
      <point x="277" y="838.6" type="curve" smooth="yes"/>
      <point x="135" y="838.6"/>
      <point x="58" y="594.881"/>
      <point x="58" y="352" type="curve" smooth="yes"/>
      <point x="58" y="109.12"/>
      <point x="174.328" y="-41.4"/>
      <point x="277" y="-41.4" type="curve" smooth="yes"/>
      <point x="379.672" y="-41.4"/>
      <point x="463" y="103.72"/>
      <point x="463" y="346.6" type="curve" smooth="yes"/>
      <point x="463" y="457.567"/>
      <point x="447" y="542.601"/>
    </contour>
  </outline>
</glyph>
<glyph name="H" format="1">
  <advance width="773"/>
  <unicode hex="0048"/>
  <outline>
    <contour>
      <point x="235" y="404" type="curve" smooth="yes"/>
      <point x="262" y="477"/>
      <point x="498" y="497"/>
      <point x="523" y="504" type="curve" smooth="yes"/>
      <point x="603.889" y="526.648"/>
      <point x="502.358" y="16"/>
      <point x="699" y="16" type="curve" smooth="yes"/>
      <point x="773.841" y="16"/>
      <point x="730.964" y="95.707"/>
      <point x="699" y="227" type="curve" smooth="yes"/>
      <point x="681.849" y="297.45"/>
      <point x="675.449" y="409.812"/>
      <point x="675" y="472" type="curve" smooth="yes"/>
      <point x="674.72" y="510.737"/>
      <point x="695" y="528.897"/>
      <point x="695" y="569.296" type="curve" smooth="yes"/>
      <point x="695" y="602.296"/>
      <point x="664.735" y="608.025"/>
      <point x="651" y="636" type="curve" smooth="yes"/>
      <point x="614.663" y="710.009"/>
      <point x="683" y="830"/>
      <point x="567" y="830" type="curve" smooth="yes"/>
      <point x="514.647" y="830"/>
      <point x="473.777" y="777.357"/>
      <point x="511" y="708" type="curve" smooth="yes"/>
      <point x="579" y="581.296"/>
      <point x="363" y="606"/>
      <point x="241" y="562" type="curve" smooth="yes"/>
      <point x="134.305" y="523.52"/>
      <point x="300" y="822"/>
      <point x="120" y="818" type="curve" smooth="yes"/>
      <point x="27.4854" y="815.944"/>
      <point x="90.3965" y="670.335"/>
      <point x="100" y="544" type="curve" smooth="yes"/>
      <point x="102.021" y="517.405"/>
      <point x="93.7393" y="466.746"/>
      <point x="92" y="446" type="curve" smooth="yes"/>
      <point x="88.4482" y="403.628"/>
      <point x="106.578" y="376.688"/>
      <point x="113" y="329" type="curve" smooth="yes"/>
      <point x="130.972" y="195.549"/>
      <point x="74.2539" y="2.71973"/>
      <point x="235" y="6" type="curve" smooth="yes"/>
      <point x="284" y="7"/>
      <point x="251" y="114"/>
      <point x="232" y="220" type="curve" smooth="yes"/>
      <point x="217.731" y="299.605"/>
      <point x="210.701" y="338.304"/>
    </contour>
  </outline>
</glyph>
<glyph name="I" format="1">
  <advance width="294"/>
  <unicode hex="0049"/>
  <outline>
    <contour>
      <point x="103.494" y="399.354" type="curve" smooth="yes"/>
      <point x="103.494" y="651.386"/>
      <point x="93.4941" y="671.354"/>
      <point x="81.4941" y="759.354" type="curve" smooth="yes"/>
      <point x="75.209" y="805.45"/>
      <point x="153.046" y="821.354"/>
      <point x="167.494" y="821.354" type="curve" smooth="yes"/>
      <point x="206.135" y="821.354"/>
      <point x="203.494" y="633.194"/>
      <point x="203.494" y="401.354" type="curve" smooth="yes"/>
      <point x="203.494" y="169.515"/>
      <point x="207.494" y="55.3545"/>
      <point x="225.494" y="19.3545" type="curve" smooth="yes"/>
      <point x="231.89" y="6.56348"/>
      <point x="160.28" y="-26"/>
      <point x="133.494" y="23.3545" type="curve" smooth="yes"/>
      <point x="97.3105" y="90.0264"/>
      <point x="103.494" y="253.322"/>
    </contour>
  </outline>
</glyph>
<glyph name="J" format="1">
  <advance width="558"/>
  <unicode hex="004A"/>
  <outline>
    <contour>
      <point x="374" y="0" type="curve" smooth="yes"/>
      <point x="284" y="-7"/>
      <point x="182" y="14"/>
      <point x="97" y="164" type="curve" smooth="yes"/>
      <point x="46.7988" y="252.59"/>
      <point x="304" y="37"/>
      <point x="346" y="108" type="curve" smooth="yes"/>
      <point x="377.488" y="161.23"/>
      <point x="308.583" y="387.887"/>
      <point x="258" y="598" type="curve" smooth="yes"/>
      <point x="245" y="652"/>
      <point x="90" y="542"/>
      <point x="94" y="617" type="curve" smooth="yes"/>
      <point x="98.3145" y="697.892"/>
      <point x="175.142" y="688.539"/>
      <point x="211" y="731" type="curve" smooth="yes"/>
      <point x="239.088" y="764.26"/>
      <point x="192" y="815"/>
      <point x="288" y="821" type="curve" smooth="yes"/>
      <point x="366.55" y="825.909"/>
      <point x="347.014" y="694.721"/>
      <point x="360" y="608" type="curve" smooth="yes"/>
      <point x="378.718" y="483.01"/>
      <point x="448.576" y="312.085"/>
      <point x="463" y="189" type="curve" smooth="yes"/>
      <point x="475.297" y="84.0625"/>
      <point x="431.825" y="4.49707"/>
    </contour>
  </outline>
</glyph>
<glyph name="K" format="1">
  <advance width="596"/>
  <unicode hex="004B"/>
  <outline>
    <contour>
      <point x="219.942" y="500" type="curve"/>
      <point x="291.932" y="588.066"/>
      <point x="314.221" y="805.478"/>
      <point x="475.942" y="821" type="curve"/>
      <point x="567.103" y="827.387"/>
      <point x="246.709" y="424.699"/>
      <point x="255.942" y="345" type="curve"/>
      <point x="248.885" y="297"/>
      <point x="591.885" y="338"/>
      <point x="491.942" y="223" type="curve" smooth="yes"/>
      <point x="421.531" y="141.98"/>
      <point x="269.942" y="252"/>
      <point x="223.942" y="198" type="curve"/>
      <point x="198.419" y="110"/>
      <point x="279.911" y="0.0429688"/>
      <point x="186.942" y="-2" type="curve" smooth="yes"/>
      <point x="50.4189" y="-5"/>
      <point x="111.903" y="263.497"/>
      <point x="100.942" y="438" type="curve" smooth="yes"/>
      <point x="91.4443" y="589.216"/>
      <point x="26.9424" y="806"/>
      <point x="135" y="825" type="curve" smooth="yes"/>
      <point x="235.817" y="842.727"/>
      <point x="157.942" y="526"/>
    </contour>
  </outline>
</glyph>
<glyph name="L" format="1">
  <advance width="727"/>
  <unicode hex="004C"/>
  <outline>
    <contour>
      <point x="255.961" y="122" type="curve"/>
      <point x="311.864" y="124.431"/>
      <point x="378.299" y="115.356"/>
      <point x="437.604" y="131.68" type="curve" smooth="yes"/>
      <point x="525.961" y="156"/>
      <point x="599.6" y="203.321"/>
      <point x="637.961" y="154" type="curve" smooth="yes"/>
      <point x="679.961" y="100"/>
      <point x="576.665" y="56.2461"/>
      <point x="495.961" y="28" type="curve" smooth="yes"/>
      <point x="397.489" y="-6.46484"/>
      <point x="288.597" y="0"/>
      <point x="197.961" y="0" type="curve" smooth="yes"/>
      <point x="75.9609" y="0"/>
      <point x="153.494" y="173.217"/>
      <point x="159.961" y="288" type="curve" smooth="yes"/>
      <point x="167.961" y="430"/>
      <point x="163.73" y="518.578"/>
      <point x="142.753" y="663.777" type="curve" smooth="yes"/>
      <point x="136.102" y="709.818"/>
      <point x="82.7451" y="721.646"/>
      <point x="90.2012" y="770.857" type="curve" smooth="yes"/>
      <point x="98.291" y="824.248"/>
      <point x="143.533" y="837.836"/>
      <point x="201.961" y="808" type="curve" smooth="yes"/>
      <point x="252.655" y="782.113"/>
      <point x="281.961" y="580"/>
      <point x="283.961" y="404" type="curve" smooth="yes"/>
      <point x="285.364" y="280.519"/>
      <point x="271.961" y="190"/>
    </contour>
  </outline>
</glyph>
<glyph name="M" format="1">
  <advance width="1024"/>
  <unicode hex="004D"/>
  <outline>
    <contour>
      <point x="364" y="672" type="curve" smooth="yes"/>
      <point x="562.433" y="698.239"/>
      <point x="375.736" y="59.3523"/>
      <point x="541.791" y="31.6768" type="curve" smooth="yes"/>
      <point x="589.791" y="23.6769"/>
      <point x="605.618" y="95.3281"/>
      <point x="589.791" y="207.677" type="curve" smooth="yes"/>
      <point x="568.003" y="362.337"/>
      <point x="561.914" y="643.355"/>
      <point x="738" y="670" type="curve" smooth="yes"/>
      <point x="892.447" y="693.37"/>
      <point x="703.479" y="51.6875"/>
      <point x="891" y="9" type="curve" smooth="yes"/>
      <point x="1014" y="-19"/>
      <point x="932" y="40.7227"/>
      <point x="932" y="208" type="curve" smooth="yes"/>
      <point x="932" y="301.595"/>
      <point x="947.539" y="500.04"/>
      <point x="916" y="616" type="curve" smooth="yes"/>
      <point x="887.221" y="721.814"/>
      <point x="831.497" y="795.909"/>
      <point x="748" y="794" type="curve" smooth="yes"/>
      <point x="660.756" y="792.006"/>
      <point x="589" y="724"/>
      <point x="535" y="724" type="curve" smooth="yes"/>
      <point x="464.678" y="724"/>
      <point x="474" y="790"/>
      <point x="368" y="792" type="curve" smooth="yes"/>
      <point x="302.154" y="793.242"/>
      <point x="290.344" y="738"/>
      <point x="234" y="738" type="curve" smooth="yes"/>
      <point x="191.043" y="738"/>
      <point x="206" y="792"/>
      <point x="138" y="792" type="curve" smooth="yes"/>
      <point x="97.1631" y="792"/>
      <point x="84" y="766"/>
      <point x="94" y="708" type="curve" smooth="yes"/>
      <point x="125.367" y="526.069"/>
      <point x="119.535" y="432.038"/>
      <point x="118" y="254" type="curve" smooth="yes"/>
      <point x="116" y="22"/>
      <point x="101.791" y="-12.3232"/>
      <point x="193" y="4" type="curve" smooth="yes"/>
      <point x="356.279" y="33.2207"/>
      <point x="122" y="640"/>
    </contour>
  </outline>
</glyph>
<glyph name="N" format="1">
  <advance width="654"/>
  <unicode hex="004E"/>
  <outline>
    <contour>
      <point x="174.418" y="689.877" type="curve"/>
      <point x="241.612" y="777.541"/>
      <point x="277.074" y="796.756"/>
      <point x="388.853" y="813.45" type="curve"/>
      <point x="478.395" y="829.202"/>
      <point x="521.888" y="755.922"/>
      <point x="539.705" y="659.037" type="curve" smooth="yes"/>
      <point x="559.123" y="553.453"/>
      <point x="574.461" y="198.603"/>
      <point x="582.382" y="125" type="curve" smooth="yes"/>
      <point x="584.869" y="101.893"/>
      <point x="633.88" y="118.568"/>
      <point x="645.589" y="99.9824" type="curve" smooth="yes"/>
      <point x="667.847" y="64.6514"/>
      <point x="565.815" y="7.29492"/>
      <point x="547.46" y="5.82031" type="curve" smooth="yes"/>
      <point x="461.736" y="-1.06836"/>
      <point x="466.555" y="82.4311"/>
      <point x="461.337" y="146.574" type="curve" smooth="yes"/>
      <point x="444.382" y="355"/>
      <point x="446.238" y="665.572"/>
      <point x="395.794" y="681.583" type="curve"/>
      <point x="336.809" y="700.761"/>
      <point x="217.124" y="570.412"/>
      <point x="201.599" y="501.449" type="curve"/>
      <point x="179.429" y="390.316"/>
      <point x="247.859" y="25.626"/>
      <point x="187.021" y="8.69824" type="curve" smooth="yes"/>
      <point x="96.6777" y="-15.6162"/>
      <point x="90.957" y="30.0117"/>
      <point x="75.6797" y="177.222" type="curve" smooth="yes"/>
      <point x="69.082" y="240.797"/>
      <point x="60.5918" y="547.402"/>
      <point x="53.624" y="634.122" type="curve" smooth="yes"/>
      <point x="48.0977" y="702.897"/>
      <point x="-4.65332" y="803.9"/>
      <point x="72.1055" y="810.068" type="curve" smooth="yes"/>
      <point x="124.936" y="814.313"/>
      <point x="153.895" y="770.492"/>
    </contour>
  </outline>
</glyph>
<glyph name="O" format="1">
  <advance width="698"/>
  <unicode hex="004F"/>
  <outline>
    <contour>
      <point x="206.584" y="359.723" type="curve" smooth="yes"/>
      <point x="207.702" y="225.038"/>
      <point x="291.317" y="118.723"/>
      <point x="380.737" y="119.465" type="curve" smooth="yes"/>
      <point x="470.158" y="120.208"/>
      <point x="493.752" y="168.205"/>
      <point x="504.651" y="302.45" type="curve" smooth="yes"/>
      <point x="515.539" y="436.547"/>
      <point x="417.666" y="703.121"/>
      <point x="328.244" y="702.377" type="curve" smooth="yes"/>
      <point x="238.824" y="701.635"/>
      <point x="204.907" y="561.715"/>
    </contour>
    <contour>
      <point x="75.165" y="399.505" type="curve" smooth="yes"/>
      <point x="73.2305" y="632.442"/>
      <point x="161.93" y="821.385"/>
      <point x="329.732" y="822.777" type="curve" smooth="yes"/>
      <point x="497.535" y="824.172"/>
      <point x="632.495" y="555.464"/>
      <point x="622.026" y="325.146" type="curve" smooth="yes"/>
      <point x="611.449" y="92.4424"/>
      <point x="550.345" y="-4.56152"/>
      <point x="382.543" y="-5.95508" type="curve" smooth="yes"/>
      <point x="214.741" y="-7.34863"/>
      <point x="77.0996" y="166.569"/>
    </contour>
  </outline>
</glyph>
<glyph name="P" format="1">
  <advance width="572"/>
  <unicode hex="0050"/>
  <outline>
    <contour>
      <point x="108.889" y="759.706" type="curve" smooth="yes"/>
      <point x="155.889" y="802.706"/>
      <point x="136.889" y="737.706"/>
      <point x="189.889" y="751.706" type="curve" smooth="yes"/>
      <point x="213.889" y="758.706"/>
      <point x="207.869" y="814"/>
      <point x="333.869" y="820" type="curve" smooth="yes"/>
      <point x="391.869" y="823"/>
      <point x="598.869" y="677"/>
      <point x="535.869" y="464" type="curve" smooth="yes"/>
      <point x="478.869" y="271"/>
      <point x="273.869" y="243"/>
      <point x="261.869" y="242" type="curve" smooth="yes"/>
      <point x="173.869" y="237"/>
      <point x="304.703" y="-20.9941"/>
      <point x="194.889" y="0" type="curve" smooth="yes"/>
      <point x="58.8887" y="26"/>
      <point x="126.869" y="204"/>
      <point x="115.869" y="394" type="curve" smooth="yes"/>
      <point x="107.869" y="530"/>
      <point x="57.8887" y="711.706"/>
    </contour>
    <contour>
      <point x="224.889" y="581.706" type="curve" smooth="yes"/>
      <point x="215.402" y="456.49"/>
      <point x="215.388" y="405.504"/>
      <point x="237.869" y="364" type="curve" smooth="yes"/>
      <point x="263.869" y="316"/>
      <point x="412.353" y="389.82"/>
      <point x="431.869" y="510" type="curve" smooth="yes"/>
      <point x="450.869" y="627"/>
      <point x="364.869" y="694"/>
      <point x="341.869" y="700" type="curve" smooth="yes"/>
      <point x="318.869" y="706"/>
      <point x="234.889" y="713.706"/>
    </contour>
  </outline>
</glyph>
<glyph name="Q" format="1">
  <advance width="764"/>
  <unicode hex="0051"/>
  <outline>
    <contour>
      <point x="91.9609" y="358" type="curve" smooth="yes"/>
      <point x="91.9609" y="584.872"/>
      <point x="165.065" y="817.438"/>
      <point x="301.961" y="817.438" type="curve" smooth="yes"/>
      <point x="438.857" y="817.438"/>
      <point x="625.961" y="626.872"/>
      <point x="625.961" y="400" type="curve" smooth="yes"/>
      <point x="625.961" y="305.077"/>
      <point x="597.758" y="219.562"/>
      <point x="554.926" y="152.2" type="curve"/>
      <point x="556.578" y="147.511"/>
      <point x="558.285" y="142.743"/>
      <point x="560.068" y="137.892" type="curve" smooth="yes"/>
      <point x="579.95" y="83.7881"/>
      <point x="679.18" y="-30.0957"/>
      <point x="579.961" y="-8.56152" type="curve" smooth="yes"/>
      <point x="520.851" y="4.26667"/>
      <point x="488.281" y="26.7003"/>
      <point x="467.893" y="54.7098" type="curve"/>
      <point x="423.253" y="19.7725"/>
      <point x="374.225" y="0"/>
      <point x="327.961" y="0" type="curve" smooth="yes"/>
      <point x="191.065" y="0"/>
      <point x="91.9609" y="131.128"/>
    </contour>
    <contour>
      <point x="213.961" y="364" type="curve" smooth="yes"/>
      <point x="213.961" y="210.544"/>
      <point x="257.849" y="127.438"/>
      <point x="343.961" y="127.438" type="curve" smooth="yes"/>
      <point x="372.464" y="127.438"/>
      <point x="400.4" y="140.817"/>
      <point x="425.02" y="164.282" type="curve"/>
      <point x="416.406" y="191.744"/>
      <point x="405.441" y="219.84"/>
      <point x="385.449" y="246.697" type="curve" smooth="yes"/>
      <point x="365.318" y="273.742"/>
      <point x="313.623" y="293.638"/>
      <point x="336.778" y="318.144" type="curve" smooth="yes"/>
      <point x="369.268" y="352.528"/>
      <point x="421.151" y="353.153"/>
      <point x="457.961" y="323.438" type="curve" smooth="yes"/>
      <point x="472.789" y="311.468"/>
      <point x="484.694" y="299.272"/>
      <point x="494.584" y="286.639" type="curve"/>
      <point x="505.021" y="321.895"/>
      <point x="511" y="361.289"/>
      <point x="511" y="403" type="curve" smooth="yes"/>
      <point x="511" y="556.456"/>
      <point x="424.073" y="679.438"/>
      <point x="337.961" y="679.438" type="curve" smooth="yes"/>
      <point x="251.849" y="679.438"/>
      <point x="213.961" y="517.456"/>
    </contour>
  </outline>
</glyph>
<glyph name="R" format="1">
  <advance width="600"/>
  <unicode hex="0052"/>
  <outline>
    <contour>
      <point x="108.889" y="759.706" type="curve" smooth="yes"/>
      <point x="155.889" y="802.706"/>
      <point x="136.889" y="737.706"/>
      <point x="189.889" y="751.706" type="curve" smooth="yes"/>
      <point x="213.889" y="758.706"/>
      <point x="207.834" y="825.218"/>
      <point x="333.869" y="820" type="curve" smooth="yes"/>
      <point x="430.485" y="816"/>
      <point x="551.1" y="666"/>
      <point x="540.484" y="484" type="curve" smooth="yes"/>
      <point x="536.523" y="416.079"/>
      <point x="484.411" y="318.863"/>
      <point x="444.484" y="286" type="curve" smooth="yes"/>
      <point x="436.663" y="279.562"/>
      <point x="459.116" y="204.937"/>
      <point x="496.484" y="136" type="curve" smooth="yes"/>
      <point x="534.066" y="66.668"/>
      <point x="584.967" y="3.79004"/>
      <point x="566.484" y="-2" type="curve" smooth="yes"/>
      <point x="400.484" y="-54"/>
      <point x="349.418" y="243.387"/>
      <point x="330.484" y="236.787" type="curve" smooth="yes"/>
      <point x="293.765" y="223.988"/>
      <point x="266.058" y="220.349"/>
      <point x="261.869" y="220" type="curve" smooth="yes"/>
      <point x="173.869" y="215"/>
      <point x="280.484" y="-20"/>
      <point x="198.484" y="0" type="curve" smooth="yes"/>
      <point x="63.9648" y="32.8096"/>
      <point x="126.869" y="182"/>
      <point x="115.869" y="372" type="curve" smooth="yes"/>
      <point x="107.869" y="508"/>
      <point x="57.8887" y="711.706"/>
    </contour>
    <contour>
      <point x="224.484" y="604" type="curve" smooth="yes"/>
      <point x="214.998" y="478.784"/>
      <point x="215.388" y="371.504"/>
      <point x="237.869" y="330" type="curve" smooth="yes"/>
      <point x="263.869" y="282"/>
      <point x="418.968" y="353.82"/>
      <point x="438.484" y="474" type="curve" smooth="yes"/>
      <point x="457.484" y="591"/>
      <point x="373.484" y="704"/>
      <point x="350.484" y="710" type="curve" smooth="yes"/>
      <point x="327.484" y="716"/>
      <point x="234.484" y="736"/>
    </contour>
  </outline>
</glyph>
<glyph name="S" format="1">
  <advance width="537"/>
  <unicode hex="0053"/>
  <outline>
    <contour>
      <point x="343.961" y="298" type="curve" smooth="yes"/>
      <point x="205.033" y="500.077"/>
      <point x="104.594" y="640.144"/>
      <point x="149.961" y="746" type="curve" smooth="yes"/>
      <point x="173.961" y="802"/>
      <point x="257.528" y="832.349"/>
      <point x="303.961" y="822" type="curve" smooth="yes"/>
      <point x="397.65" y="801.119"/>
      <point x="483.453" y="684.904"/>
      <point x="435.961" y="624" type="curve" smooth="yes"/>
      <point x="395.961" y="572.704"/>
      <point x="303.961" y="752"/>
      <point x="269.961" y="722" type="curve" smooth="yes"/>
      <point x="198.086" y="658.581"/>
      <point x="381.053" y="406.208"/>
      <point x="409.961" y="356" type="curve" smooth="yes"/>
      <point x="523.961" y="158"/>
      <point x="489.766" y="7.66016"/>
      <point x="349.961" y="0" type="curve" smooth="yes"/>
      <point x="203.961" y="-8"/>
      <point x="131.961" y="28"/>
      <point x="87.9609" y="114" type="curve" smooth="yes"/>
      <point x="43.5947" y="200.716"/>
      <point x="73.961" y="218"/>
      <point x="121.961" y="240" type="curve" smooth="yes"/>
      <point x="167.414" y="260.833"/>
      <point x="134.87" y="175.835"/>
      <point x="193.961" y="128" type="curve" smooth="yes"/>
      <point x="235.961" y="94"/>
      <point x="256.629" y="85.792"/>
      <point x="323.961" y="90" type="curve" smooth="yes"/>
      <point x="419.961" y="96"/>
      <point x="387.961" y="234"/>
    </contour>
  </outline>
</glyph>
<glyph name="T" format="1">
  <advance width="635"/>
  <unicode hex="0054"/>
  <outline>
    <contour>
      <point x="456.891" y="705.008" type="curve" smooth="yes"/>
      <point x="394.666" y="702.159"/>
      <point x="284.016" y="692.125"/>
      <point x="225.076" y="675.091" type="curve" smooth="yes"/>
      <point x="166.137" y="658.057"/>
      <point x="-11.1475" y="662.648"/>
      <point x="42.0986" y="745.056" type="curve" smooth="yes"/>
      <point x="60.5469" y="773.156"/>
      <point x="199.977" y="778.094"/>
      <point x="419.369" y="800" type="curve" smooth="yes"/>
      <point x="645.804" y="822.55"/>
      <point x="731.187" y="885.303"/>
      <point x="635" y="746" type="curve" smooth="yes"/>
      <point x="615.554" y="717.949"/>
      <point x="676.725" y="715.877"/>
    </contour>
    <contour>
      <point x="327.369" y="336" type="curve" smooth="yes"/>
      <point x="319.468" y="397.786"/>
      <point x="304.738" y="524"/>
      <point x="284.738" y="582" type="curve" smooth="yes"/>
      <point x="264.738" y="640"/>
      <point x="274.369" y="817"/>
      <point x="359.369" y="768" type="curve" smooth="yes"/>
      <point x="388.369" y="751"/>
      <point x="410.369" y="524"/>
      <point x="443.369" y="306" type="curve" smooth="yes"/>
      <point x="477.369" y="81"/>
      <point x="533.369" y="-110"/>
      <point x="367.369" y="-2" type="curve" smooth="yes"/>
      <point x="338.759" y="16.6133"/>
      <point x="343.738" y="208"/>
    </contour>
  </outline>
</glyph>
<glyph name="U" format="1">
  <advance width="658"/>
  <unicode hex="0055"/>
  <outline>
    <contour>
      <point x="496" y="258" type="curve" smooth="yes"/>
      <point x="507.941" y="386.971"/>
      <point x="558" y="828"/>
      <point x="410" y="824" type="curve" smooth="yes"/>
      <point x="341.907" y="822.159"/>
      <point x="394" y="694.704"/>
      <point x="394" y="514" type="curve" smooth="yes"/>
      <point x="394" y="370.105"/>
      <point x="369.173" y="81.7607"/>
      <point x="256" y="122" type="curve" smooth="yes"/>
      <point x="225.095" y="132.988"/>
      <point x="190.725" y="183.664"/>
      <point x="190" y="282" type="curve" smooth="yes"/>
      <point x="189.392" y="364.47"/>
      <point x="213.098" y="479.449"/>
      <point x="212" y="567.296" type="curve" smooth="yes"/>
      <point x="210.596" y="679.737"/>
      <point x="178.562" y="756.212"/>
      <point x="110" y="754" type="curve" smooth="yes"/>
      <point x="71.4824" y="752.758"/>
      <point x="108.149" y="640.096"/>
      <point x="106" y="567.296" type="curve" smooth="yes"/>
      <point x="101.909" y="428.712"/>
      <point x="94" y="336"/>
      <point x="94" y="212" type="curve" smooth="yes"/>
      <point x="94" y="80.6445"/>
      <point x="183.398" y="0"/>
      <point x="296" y="0" type="curve" smooth="yes"/>
      <point x="396" y="0"/>
      <point x="408" y="38"/>
      <point x="432" y="104" type="curve"/>
      <point x="484" y="58"/>
      <point x="414" y="0"/>
      <point x="566" y="0" type="curve" smooth="yes"/>
      <point x="610" y="0"/>
      <point x="486" y="150"/>
    </contour>
  </outline>
</glyph>
<glyph name="V" format="1">
  <advance width="514"/>
  <unicode hex="0056"/>
  <outline>
    <contour>
      <point x="282.716" y="158.2" type="curve" smooth="yes"/>
      <point x="342.716" y="108.2"/>
      <point x="322.071" y="553.2"/>
      <point x="344.071" y="661.2" type="curve" smooth="yes"/>
      <point x="362.071" y="750.2"/>
      <point x="382.071" y="819.2"/>
      <point x="479.071" y="819.2" type="curve" smooth="yes"/>
      <point x="528.071" y="819.2"/>
      <point x="565.071" y="721.2"/>
      <point x="486.071" y="738.2" type="curve"/>
      <point x="441.071" y="687.2"/>
      <point x="436.716" y="580.2"/>
      <point x="432.716" y="525.2" type="curve" smooth="yes"/>
      <point x="423.716" y="401.2"/>
      <point x="436.716" y="22.2002"/>
      <point x="299.716" y="14.2002" type="curve" smooth="yes"/>
      <point x="232.711" y="10.2871"/>
      <point x="166.779" y="104.906"/>
      <point x="142.716" y="195.2" type="curve" smooth="yes"/>
      <point x="105.102" y="336.343"/>
      <point x="77.4092" y="534.206"/>
      <point x="69.1426" y="666.4" type="curve" smooth="yes"/>
      <point x="66.2441" y="712.746"/>
      <point x="16.7158" y="619.2"/>
      <point x="-3.28418" y="677.2" type="curve" smooth="yes"/>
      <point x="-9.35156" y="694.794"/>
      <point x="62.7158" y="833.2"/>
      <point x="115.716" y="815.2" type="curve" smooth="yes"/>
      <point x="185.31" y="791.564"/>
      <point x="168.81" y="253.122"/>
    </contour>
  </outline>
</glyph>
<glyph name="W" format="1">
  <advance width="966"/>
  <unicode hex="0057"/>
  <outline>
    <contour>
      <point x="104" y="825" type="curve" smooth="yes"/>
      <point x="138" y="820"/>
      <point x="185" y="808"/>
      <point x="191" y="774" type="curve" smooth="yes"/>
      <point x="226" y="581"/>
      <point x="225" y="101"/>
      <point x="341" y="34" type="curve" smooth="yes"/>
      <point x="378" y="12"/>
      <point x="444" y="197"/>
      <point x="442" y="385" type="curve" smooth="yes"/>
      <point x="441" y="515"/>
      <point x="405" y="740"/>
      <point x="435" y="739" type="curve" smooth="yes"/>
      <point x="477" y="738"/>
      <point x="503" y="735"/>
      <point x="547" y="733" type="curve" smooth="yes"/>
      <point x="570" y="732"/>
      <point x="545" y="532"/>
      <point x="571" y="386" type="curve" smooth="yes"/>
      <point x="596" y="247"/>
      <point x="671" y="163"/>
      <point x="684" y="170" type="curve" smooth="yes"/>
      <point x="728" y="194"/>
      <point x="749" y="355"/>
      <point x="746" y="541" type="curve" smooth="yes"/>
      <point x="744" y="657"/>
      <point x="699" y="787"/>
      <point x="735" y="889" type="curve" smooth="yes"/>
      <point x="741" y="906"/>
      <point x="849" y="905"/>
      <point x="848" y="860" type="curve" smooth="yes"/>
      <point x="839" y="552"/>
      <point x="886" y="104"/>
      <point x="711" y="81" type="curve" smooth="yes"/>
      <point x="618" y="69"/>
      <point x="558" y="209"/>
      <point x="521" y="219" type="curve"/>
      <point x="473" y="146"/>
      <point x="479" y="-10"/>
      <point x="373" y="-43" type="curve" smooth="yes"/>
      <point x="204" y="-95"/>
      <point x="144" y="169"/>
      <point x="116" y="348" type="curve" smooth="yes"/>
      <point x="88" y="527"/>
      <point x="33" y="836"/>
    </contour>
  </outline>
</glyph>
<glyph name="X" format="1">
  <advance width="638"/>
  <unicode hex="0058"/>
  <outline>
    <contour>
      <point x="180" y="828" type="curve" smooth="yes"/>
      <point x="86" y="828"/>
      <point x="196.059" y="635.318"/>
      <point x="208" y="578" type="curve" smooth="yes"/>
      <point x="238" y="434"/>
      <point x="276.352" y="335.966"/>
      <point x="320" y="220" type="curve" smooth="yes"/>
      <point x="378.069" y="65.7197"/>
      <point x="414.612" y="20.2832"/>
      <point x="458" y="18" type="curve" smooth="yes"/>
      <point x="564.022" y="12.4199"/>
      <point x="438" y="174"/>
      <point x="384" y="342" type="curve" smooth="yes"/>
      <point x="354.917" y="432.479"/>
      <point x="325.045" y="515.892"/>
      <point x="306" y="604" type="curve" smooth="yes"/>
      <point x="281.133" y="719.046"/>
      <point x="263.812" y="828"/>
    </contour>
    <contour>
      <point x="88.1934" y="78.0156" type="curve" smooth="yes"/>
      <point x="70.8154" y="39.0635"/>
      <point x="107.038" y="-12.4229"/>
      <point x="149.69" y="-12.4229" type="curve" smooth="yes"/>
      <point x="230" y="-12.4229"/>
      <point x="161.194" y="38.5068"/>
      <point x="238" y="140" type="curve" smooth="yes"/>
      <point x="294" y="214"/>
      <point x="382.519" y="326.619"/>
      <point x="440" y="422" type="curve" smooth="yes"/>
      <point x="522.464" y="558.834"/>
      <point x="650" y="718"/>
      <point x="558" y="722" type="curve" smooth="yes"/>
      <point x="486.814" y="725.095"/>
      <point x="401.354" y="568.7"/>
      <point x="346" y="460" type="curve"/>
      <point x="294" y="452"/>
      <point x="282.175" y="393.369"/>
      <point x="246" y="340" type="curve" smooth="yes"/>
      <point x="179.075" y="241.267"/>
      <point x="156" y="230"/>
    </contour>
  </outline>
</glyph>
<glyph name="Y" format="1">
  <advance width="590"/>
  <unicode hex="0059"/>
  <outline>
    <contour>
      <point x="334" y="1" type="curve" smooth="yes"/>
      <point x="462" y="1"/>
      <point x="469.179" y="177.87"/>
      <point x="492.058" y="311.981" type="curve" smooth="yes"/>
      <point x="525.527" y="508.171"/>
      <point x="536.058" y="811.981"/>
      <point x="474.058" y="821.981" type="curve" smooth="yes"/>
      <point x="332.609" y="844.796"/>
      <point x="438" y="548"/>
      <point x="393" y="442" type="curve"/>
      <point x="312" y="482"/>
      <point x="230" y="742"/>
      <point x="90" y="698" type="curve" smooth="yes"/>
      <point x="5.32324" y="671.388"/>
      <point x="170.185" y="560.018"/>
      <point x="225" y="474" type="curve" smooth="yes"/>
      <point x="271.622" y="400.84"/>
      <point x="336" y="349"/>
      <point x="350" y="290" type="curve" smooth="yes"/>
      <point x="376.062" y="180.167"/>
      <point x="253.742" y="1"/>
    </contour>
  </outline>
</glyph>
<glyph name="Z" format="1">
  <advance width="586"/>
  <unicode hex="005A"/>
  <outline>
    <contour>
      <point x="13.4697" y="480.434" type="curve" smooth="yes"/>
      <point x="87.6973" y="627.24"/>
      <point x="116.196" y="812.769"/>
      <point x="264.47" y="819.434" type="curve" smooth="yes"/>
      <point x="442.47" y="827.434"/>
      <point x="368.47" y="499.434"/>
      <point x="324.47" y="359.434" type="curve"/>
      <point x="468.47" y="427.434"/>
      <point x="518.47" y="267.434"/>
      <point x="516.47" y="137.434" type="curve" smooth="yes"/>
      <point x="513.797" y="-36.3223"/>
      <point x="360.088" y="-233.566"/>
      <point x="221.088" y="-220.566" type="curve" smooth="yes"/>
      <point x="98.5615" y="-209.107"/>
      <point x="16.8633" y="-42.0146"/>
      <point x="72.0879" y="68.4336" type="curve" smooth="yes"/>
      <point x="109.088" y="142.434"/>
      <point x="110.47" y="-80.5664"/>
      <point x="208.47" y="-138.566" type="curve" smooth="yes"/>
      <point x="296.843" y="-190.869"/>
      <point x="407.709" y="-19.3232"/>
      <point x="432.47" y="85.4336" type="curve" smooth="yes"/>
      <point x="458.47" y="195.434"/>
      <point x="414.471" y="301.434"/>
      <point x="258.47" y="269.434" type="curve" smooth="yes"/>
      <point x="158.139" y="248.853"/>
      <point x="361.328" y="645.815"/>
      <point x="280.47" y="695.434" type="curve" smooth="yes"/>
      <point x="192.47" y="749.434"/>
      <point x="176.725" y="537.721"/>
      <point x="84.4697" y="463.434" type="curve" smooth="yes"/>
      <point x="62.293" y="445.576"/>
      <point x="0.622324" y="455.024"/>
    </contour>
  </outline>
</glyph>
<glyph name="bracketleft" format="1">
  <advance width="399"/>
  <unicode hex="005B"/>
  <outline>
    <contour>
      <point x="142" y="806" type="curve" smooth="yes"/>
      <point x="68.4111" y="786.872"/>
      <point x="72.7979" y="603.035"/>
      <point x="70.8828" y="367.394" type="curve" smooth="yes"/>
      <point x="69.708" y="222.85"/>
      <point x="60" y="-26"/>
      <point x="140" y="-84" type="curve" smooth="yes"/>
      <point x="186.311" y="-117.575"/>
      <point x="336" y="-118"/>
      <point x="346" y="-50" type="curve" smooth="yes"/>
      <point x="348.517" y="-32.8877"/>
      <point x="246" y="-44"/>
      <point x="190" y="0" type="curve" smooth="yes"/>
      <point x="147.743" y="33.2018"/>
      <point x="153.363" y="295.288"/>
      <point x="154" y="396" type="curve" smooth="yes"/>
      <point x="154.884" y="535.615"/>
      <point x="149.163" y="663.479"/>
      <point x="194" y="720" type="curve" smooth="yes"/>
      <point x="223.616" y="757.334"/>
      <point x="314.809" y="745.257"/>
      <point x="324" y="762" type="curve" smooth="yes"/>
      <point x="359.142" y="826.014"/>
      <point x="193.28" y="819.33"/>
    </contour>
  </outline>
</glyph>
<glyph name="backslash" format="1">
  <advance width="413"/>
  <unicode hex="005C"/>
  <outline>
    <contour>
      <point x="167.711" y="718.171" type="curve" smooth="yes"/>
      <point x="182.4" y="643.614"/>
      <point x="186.916" y="634.472"/>
      <point x="265.295" y="412.238" type="curve" smooth="yes"/>
      <point x="313.866" y="274.52"/>
      <point x="374.01" y="122.577"/>
      <point x="362.062" y="47.667" type="curve" smooth="yes"/>
      <point x="353.216" y="-7.78711"/>
      <point x="274.853" y="-0.895508"/>
      <point x="276.63" y="13.2949" type="curve" smooth="yes"/>
      <point x="281.631" y="53.2324"/>
      <point x="247.434" y="162.223"/>
      <point x="170.323" y="380.863" type="curve" smooth="yes"/>
      <point x="93.2129" y="599.504"/>
      <point x="37.2852" y="739.697"/>
      <point x="50" y="786" type="curve" smooth="yes"/>
      <point x="64.0312" y="837.091"/>
      <point x="157.47" y="770.155"/>
    </contour>
  </outline>
</glyph>
<glyph name="bracketright" format="1">
  <advance width="399"/>
  <unicode hex="005D"/>
  <outline>
    <contour>
      <point x="270" y="792" type="curve" smooth="yes"/>
      <point x="336.117" y="756"/>
      <point x="331.085" y="603.035"/>
      <point x="333" y="367.394" type="curve" smooth="yes"/>
      <point x="334.175" y="222.85"/>
      <point x="340.822" y="-34.9111"/>
      <point x="279.82" y="-80" type="curve" smooth="yes"/>
      <point x="233.82" y="-114"/>
      <point x="75.8203" y="-118"/>
      <point x="65.8203" y="-50" type="curve" smooth="yes"/>
      <point x="63.3037" y="-32.8877"/>
      <point x="176.721" y="-45.0996"/>
      <point x="221.82" y="0" type="curve" smooth="yes"/>
      <point x="259.82" y="38"/>
      <point x="250.52" y="295.288"/>
      <point x="249.883" y="396" type="curve" smooth="yes"/>
      <point x="248.999" y="535.615"/>
      <point x="254.72" y="663.479"/>
      <point x="209.883" y="720" type="curve" smooth="yes"/>
      <point x="180.267" y="757.334"/>
      <point x="89.0742" y="745.257"/>
      <point x="79.8828" y="762" type="curve" smooth="yes"/>
      <point x="43.7607" y="827.8"/>
      <point x="223.466" y="817.337"/>
    </contour>
  </outline>
</glyph>
<glyph name="asciicircum" format="1">
  <advance width="514"/>
  <unicode hex="005E"/>
  <outline>
    <contour>
      <point x="83.9648" y="509.8" type="curve" smooth="yes"/>
      <point x="75.9648" y="603.8"/>
      <point x="210.574" y="724.8"/>
      <point x="256.965" y="724.8" type="curve" smooth="yes"/>
      <point x="306.964" y="724.8"/>
      <point x="432.965" y="585.8"/>
      <point x="428.965" y="503.8" type="curve" smooth="yes"/>
      <point x="427.055" y="464.629"/>
      <point x="312.919" y="619.797"/>
      <point x="256.965" y="616.8" type="curve" smooth="yes"/>
      <point x="200.965" y="613.8"/>
      <point x="88.0078" y="462.295"/>
    </contour>
  </outline>
</glyph>
<glyph name="underscore" format="1">
  <advance width="569"/>
  <unicode hex="005F"/>
  <outline>
    <contour>
      <point x="20" y="-49" type="curve" smooth="yes"/>
      <point x="38" y="8"/>
      <point x="186" y="0"/>
      <point x="276" y="0" type="curve" smooth="yes"/>
      <point x="424.354" y="0"/>
      <point x="535.021" y="-18.373"/>
      <point x="540" y="-38" type="curve" smooth="yes"/>
      <point x="549.067" y="-76.1553"/>
      <point x="416" y="-81"/>
      <point x="262.171" y="-79.0479" type="curve" smooth="yes"/>
      <point x="122.279" y="-77.2725"/>
      <point x="11.8083" y="-74.9403"/>
    </contour>
  </outline>
</glyph>
<glyph name="grave" format="1">
  <advance width="263"/>
  <unicode hex="0060"/>
  <outline>
    <contour>
      <point x="86" y="730" type="curve" smooth="yes"/>
      <point x="37.7148" y="791.258"/>
      <point x="20.4015" y="788.144"/>
      <point x="51.6748" y="813.083" type="curve" smooth="yes"/>
      <point x="108" y="858"/>
      <point x="136.271" y="856.441"/>
      <point x="172.527" y="787.379" type="curve" smooth="yes"/>
      <point x="210" y="716"/>
      <point x="230.621" y="671.5"/>
      <point x="212" y="658" type="curve"/>
      <point x="192.523" y="643.88"/>
      <point x="134.286" y="668.742"/>
    </contour>
  </outline>
</glyph>
<glyph name="a" format="1">
  <advance width="582"/>
  <unicode hex="0061"/>
  <outline>
    <contour>
      <point x="187.851" y="267.998" type="curve" smooth="yes"/>
      <point x="168.35" y="186.704"/>
      <point x="172.24" y="112"/>
      <point x="213.701" y="109.996" type="curve" smooth="yes"/>
      <point x="240.836" y="108.685"/>
      <point x="347.12" y="160.523"/>
      <point x="357.12" y="243.523" type="curve" smooth="yes"/>
      <point x="367.12" y="326.523"/>
      <point x="362.12" y="434.523"/>
      <point x="335.12" y="437.523" type="curve" smooth="yes"/>
      <point x="308.12" y="440.523"/>
      <point x="208.24" y="353"/>
    </contour>
    <contour>
      <point x="80.0117" y="272.608" type="curve" smooth="yes"/>
      <point x="110.012" y="429.608"/>
      <point x="284.985" y="568.26"/>
      <point x="365.851" y="558.998" type="curve" smooth="yes"/>
      <point x="483.24" y="545.553"/>
      <point x="451.092" y="248.999"/>
      <point x="456.24" y="179" type="curve" smooth="yes"/>
      <point x="461.066" y="113.413"/>
      <point x="504.631" y="44.9453"/>
      <point x="494.821" y="30" type="curve" smooth="yes"/>
      <point x="446.62" y="-43.4326"/>
      <point x="388" y="43"/>
      <point x="368" y="84" type="curve"/>
      <point x="329" y="36"/>
      <point x="255.04" y="-2"/>
      <point x="174" y="-2" type="curve" smooth="yes"/>
      <point x="92.7783" y="-2"/>
      <point x="50.0117" y="115.608"/>
    </contour>
  </outline>
</glyph>
<glyph name="b" format="1">
  <advance width="563"/>
  <unicode hex="0062"/>
  <outline>
    <contour>
      <point x="96" y="244" type="curve" smooth="yes"/>
      <point x="87" y="420"/>
      <point x="10.4619" y="805"/>
      <point x="86" y="805" type="curve" smooth="yes"/>
      <point x="197.759" y="805"/>
      <point x="177" y="494"/>
      <point x="189" y="453" type="curve"/>
      <point x="219" y="486"/>
      <point x="262" y="593"/>
      <point x="390" y="584" type="curve" smooth="yes"/>
      <point x="467.333" y="578.562"/>
      <point x="508" y="428"/>
      <point x="480" y="265" type="curve" smooth="yes"/>
      <point x="452" y="102"/>
      <point x="368.058" y="0"/>
      <point x="290" y="0" type="curve" smooth="yes"/>
      <point x="141.879" y="0"/>
      <point x="104.446" y="78.8291"/>
    </contour>
    <contour>
      <point x="222" y="276" type="curve" smooth="yes"/>
      <point x="199" y="171"/>
      <point x="223" y="111"/>
      <point x="247" y="106" type="curve" smooth="yes"/>
      <point x="271" y="101"/>
      <point x="350.928" y="151"/>
      <point x="373.928" y="256" type="curve" smooth="yes"/>
      <point x="396.928" y="361"/>
      <point x="391.538" y="446.148"/>
      <point x="368" y="453" type="curve" smooth="yes"/>
      <point x="331.928" y="463.5"/>
      <point x="245" y="381"/>
    </contour>
  </outline>
</glyph>
<glyph name="c" format="1">
  <advance width="445"/>
  <unicode hex="0063"/>
  <outline>
    <contour>
      <point x="75.1514" y="282.821" type="curve"/>
      <point x="74.1514" y="489.821"/>
      <point x="234" y="578"/>
      <point x="269" y="575" type="curve" smooth="yes"/>
      <point x="336" y="570"/>
      <point x="373" y="460"/>
      <point x="349" y="424" type="curve" smooth="yes"/>
      <point x="334" y="401"/>
      <point x="326.151" y="477.821"/>
      <point x="277.151" y="458.821" type="curve" smooth="yes"/>
      <point x="200.151" y="428.821"/>
      <point x="189.151" y="325.821"/>
      <point x="189.151" y="237.821" type="curve" smooth="yes"/>
      <point x="189.151" y="125.821"/>
      <point x="292.151" y="75.8213"/>
      <point x="329.151" y="53.8213" type="curve" smooth="yes"/>
      <point x="368.151" y="30.8213"/>
      <point x="341.151" y="4.82129"/>
      <point x="304.151" y="3.82129" type="curve" smooth="yes"/>
      <point x="163.151" y="0.821289"/>
      <point x="73.1514" y="105.821"/>
    </contour>
  </outline>
</glyph>
<glyph name="d" format="1">
  <advance width="621"/>
  <unicode hex="0064"/>
  <outline>
    <contour>
      <point x="424" y="116" type="curve"/>
      <point x="339.817" y="46"/>
      <point x="285" y="-39"/>
      <point x="177" y="17" type="curve" smooth="yes"/>
      <point x="89" y="63"/>
      <point x="48.8184" y="210.127"/>
      <point x="119" y="354" type="curve" smooth="yes"/>
      <point x="159" y="436"/>
      <point x="214" y="550"/>
      <point x="376.015" y="557.812" type="curve"/>
      <point x="360.015" y="688.812"/>
      <point x="366.351" y="908.188"/>
      <point x="456.183" y="784" type="curve" smooth="yes"/>
      <point x="485.715" y="743.173"/>
      <point x="492" y="394"/>
      <point x="511.015" y="234.812" type="curve" smooth="yes"/>
      <point x="521.102" y="150.363"/>
      <point x="568" y="76"/>
      <point x="554" y="40" type="curve" smooth="yes"/>
      <point x="520.209" y="-46.8915"/>
      <point x="443.817" y="36"/>
    </contour>
    <contour>
      <point x="232" y="319" type="curve" smooth="yes"/>
      <point x="190" y="235"/>
      <point x="184" y="143"/>
      <point x="225" y="123" type="curve" smooth="yes"/>
      <point x="266" y="103"/>
      <point x="321" y="136"/>
      <point x="362" y="221" type="curve" smooth="yes"/>
      <point x="387" y="272"/>
      <point x="400" y="344"/>
      <point x="380.183" y="422" type="curve" smooth="yes"/>
      <point x="368.949" y="466.214"/>
      <point x="274" y="403"/>
    </contour>
  </outline>
</glyph>
<glyph name="e" format="1">
  <advance width="458"/>
  <unicode hex="0065"/>
  <outline>
    <contour>
      <point x="136.04" y="483" type="curve" smooth="yes"/>
      <point x="191.303" y="567.25"/>
      <point x="274.777" y="584.75"/>
      <point x="327.777" y="561.75" type="curve" smooth="yes"/>
      <point x="380.777" y="538.75"/>
      <point x="409.225" y="378.303"/>
      <point x="343.89" y="293.401" type="curve" smooth="yes"/>
      <point x="311.938" y="251.88"/>
      <point x="204.555" y="246.5"/>
      <point x="170.555" y="228.5" type="curve" smooth="yes"/>
      <point x="167.555" y="226.5"/>
      <point x="141.777" y="121.75"/>
      <point x="192.777" y="96.75" type="curve" smooth="yes"/>
      <point x="240.777" y="73.75"/>
      <point x="356.777" y="209.75"/>
      <point x="379.777" y="143.75" type="curve" smooth="yes"/>
      <point x="399.777" y="84.75"/>
      <point x="232.777" y="-15.25"/>
      <point x="161.777" y="0.75" type="curve"/>
      <point x="98.7773" y="4.75"/>
      <point x="64" y="73.4531"/>
      <point x="63.3887" y="171.102" type="curve"/>
      <point x="62.3887" y="263.102"/>
      <point x="84.9736" y="405.146"/>
    </contour>
    <contour>
      <point x="216.89" y="439.401" type="curve" smooth="yes"/>
      <point x="190.979" y="410.945"/>
      <point x="169.762" y="324.452"/>
      <point x="186.89" y="319.401" type="curve" smooth="yes"/>
      <point x="204.017" y="314.352"/>
      <point x="268.409" y="326.818"/>
      <point x="288.89" y="359.401" type="curve" smooth="yes"/>
      <point x="310.89" y="394.402"/>
      <point x="316.53" y="422.615"/>
      <point x="302.89" y="462.401" type="curve" smooth="yes"/>
      <point x="290.89" y="497.402"/>
      <point x="248.589" y="474.214"/>
    </contour>
  </outline>
</glyph>
<glyph name="f" format="1">
  <advance width="531"/>
  <unicode hex="0066"/>
  <outline>
    <contour>
      <point x="172" y="432" type="curve" smooth="yes"/>
      <point x="172" y="663"/>
      <point x="194.623" y="806.57"/>
      <point x="254.801" y="816.6" type="curve" smooth="yes"/>
      <point x="350.802" y="832.599"/>
      <point x="444.802" y="758.134"/>
      <point x="462.801" y="708.135" type="curve" smooth="yes"/>
      <point x="495.846" y="616.342"/>
      <point x="366.801" y="740.135"/>
      <point x="318.801" y="714.135" type="curve" smooth="yes"/>
      <point x="254.801" y="680.135"/>
      <point x="282" y="446"/>
      <point x="282" y="386" type="curve" smooth="yes"/>
      <point x="282" y="155"/>
      <point x="312.801" y="0"/>
      <point x="222.801" y="0" type="curve" smooth="yes"/>
      <point x="186.801" y="0"/>
      <point x="172" y="201"/>
    </contour>
    <contour>
      <point x="76.8477" y="362.4" type="curve" smooth="yes"/>
      <point x="49.8477" y="441.4"/>
      <point x="154.848" y="458.4"/>
      <point x="265.848" y="498.4" type="curve" smooth="yes"/>
      <point x="382.848" y="540.4"/>
      <point x="421.154" y="501.296"/>
      <point x="444" y="461" type="curve" smooth="yes"/>
      <point x="462.75" y="427.932"/>
      <point x="383.199" y="442.865"/>
      <point x="274.199" y="398.865" type="curve" smooth="yes"/>
      <point x="165.199" y="354.865"/>
      <point x="91.8477" y="318.4"/>
    </contour>
  </outline>
</glyph>
<glyph name="g" format="1">
  <advance width="562"/>
  <unicode hex="0067"/>
  <outline>
    <contour>
      <point x="177" y="307" type="curve" smooth="yes"/>
      <point x="160" y="242"/>
      <point x="171" y="140"/>
      <point x="238" y="140" type="curve" smooth="yes"/>
      <point x="269.064" y="140"/>
      <point x="356.398" y="154.44"/>
      <point x="375" y="219" type="curve" smooth="yes"/>
      <point x="392" y="278"/>
      <point x="386.013" y="462.211"/>
      <point x="355" y="464" type="curve" smooth="yes"/>
      <point x="303" y="467"/>
      <point x="194" y="372"/>
    </contour>
    <contour>
      <point x="86.0664" y="343" type="curve" smooth="yes"/>
      <point x="120.066" y="474"/>
      <point x="263.57" y="569.564"/>
      <point x="352" y="567.296" type="curve" smooth="yes"/>
      <point x="468.934" y="564.296"/>
      <point x="473.934" y="425"/>
      <point x="477" y="293" type="curve" smooth="yes"/>
      <point x="478.424" y="231.722"/>
      <point x="479.066" y="86"/>
      <point x="476.066" y="0" type="curve" smooth="yes"/>
      <point x="472.066" y="-104"/>
      <point x="413.737" y="-204.233"/>
      <point x="325.737" y="-204.233" type="curve" smooth="yes"/>
      <point x="243.737" y="-204.233"/>
      <point x="136.046" y="-129.352"/>
      <point x="119.737" y="-70.2334" type="curve" smooth="yes"/>
      <point x="103.737" y="-12.2334"/>
      <point x="264.784" y="-121.732"/>
      <point x="319.737" y="-102.233" type="curve" smooth="yes"/>
      <point x="381.737" y="-80.2334"/>
      <point x="387" y="-20"/>
      <point x="389" y="86" type="curve"/>
      <point x="338" y="39"/>
      <point x="206.95" y="41.0186"/>
      <point x="186.066" y="44" type="curve" smooth="yes"/>
      <point x="102" y="56"/>
      <point x="52.0664" y="212"/>
    </contour>
  </outline>
</glyph>
<glyph name="h" format="1">
  <advance width="618"/>
  <unicode hex="0068"/>
  <outline>
    <contour>
      <point x="99.3789" y="262.084" type="curve" smooth="yes"/>
      <point x="99.3789" y="478.502"/>
      <point x="53.0639" y="837.652"/>
      <point x="98" y="817" type="curve" smooth="yes"/>
      <point x="191.379" y="774.084"/>
      <point x="170" y="693"/>
      <point x="178" y="578" type="curve" smooth="yes"/>
      <point x="185" y="476"/>
      <point x="179.38" y="428.7"/>
      <point x="185.38" y="390.7" type="curve"/>
      <point x="245.38" y="492.7"/>
      <point x="281.379" y="540.084"/>
      <point x="379.38" y="542.7" type="curve"/>
      <point x="499.38" y="540.7"/>
      <point x="525.682" y="421.312"/>
      <point x="529.379" y="306.084" type="curve" smooth="yes"/>
      <point x="533.379" y="181.468"/>
      <point x="533.11" y="39.3242"/>
      <point x="503.379" y="14.084" type="curve" smooth="yes"/>
      <point x="423.378" y="-53.832"/>
      <point x="432" y="113.403"/>
      <point x="432" y="186" type="curve" smooth="yes"/>
      <point x="432" y="277.949"/>
      <point x="441.38" y="387.7"/>
      <point x="383.38" y="416.7" type="curve" smooth="yes"/>
      <point x="327.38" y="444.7"/>
      <point x="224.379" y="294.084"/>
      <point x="203.379" y="220.084" type="curve" smooth="yes"/>
      <point x="172.379" y="111.084"/>
      <point x="226.697" y="38.2085"/>
      <point x="111.379" y="0" type="curve" smooth="yes"/>
      <point x="69.3791" y="-13.9158"/>
      <point x="99.3789" y="114.084"/>
    </contour>
  </outline>
</glyph>
<glyph name="i" format="1">
  <advance width="318"/>
  <unicode hex="0069"/>
  <outline>
    <contour>
      <point x="88.0029" y="768" type="curve" smooth="yes"/>
      <point x="88.0029" y="800"/>
      <point x="105.866" y="804.299"/>
      <point x="146.866" y="804.299" type="curve" smooth="yes"/>
      <point x="184.203" y="804.299"/>
      <point x="200.866" y="798.299"/>
      <point x="202.866" y="758.299" type="curve"/>
      <point x="202.866" y="726.299"/>
      <point x="197.003" y="724"/>
      <point x="156.003" y="724" type="curve" smooth="yes"/>
      <point x="115.003" y="724"/>
      <point x="88.0029" y="736"/>
    </contour>
    <contour>
      <point x="75.8662" y="481.299" type="curve"/>
      <point x="75.8662" y="481.299"/>
      <point x="186.729" y="478.598"/>
      <point x="188.729" y="455.598" type="curve" smooth="yes"/>
      <point x="198.729" y="347.598"/>
      <point x="202" y="343.569"/>
      <point x="202" y="237" type="curve" smooth="yes"/>
      <point x="202" y="144.241"/>
      <point x="238" y="20"/>
      <point x="215" y="12" type="curve" smooth="yes"/>
      <point x="176" y="-1"/>
      <point x="116.642" y="16.9843"/>
      <point x="103" y="63" type="curve" smooth="yes"/>
      <point x="56.5322" y="219.736"/>
      <point x="75.8662" y="481.299"/>
    </contour>
  </outline>
</glyph>
<glyph name="j" format="1">
  <advance width="389"/>
  <unicode hex="006A"/>
  <outline>
    <contour>
      <point x="160" y="774" type="curve" smooth="yes"/>
      <point x="164" y="810"/>
      <point x="185" y="831"/>
      <point x="238" y="824" type="curve"/>
      <point x="290" y="809"/>
      <point x="309" y="822"/>
      <point x="304" y="782" type="curve"/>
      <point x="300" y="746"/>
      <point x="287" y="715"/>
      <point x="234" y="722" type="curve" smooth="yes"/>
      <point x="181" y="729"/>
      <point x="156" y="738"/>
    </contour>
    <contour>
      <point x="178" y="546" type="curve"/>
      <point x="178" y="546"/>
      <point x="314" y="541"/>
      <point x="316" y="518" type="curve" smooth="yes"/>
      <point x="326" y="410"/>
      <point x="304" y="320"/>
      <point x="304" y="193" type="curve" smooth="yes"/>
      <point x="304" y="34"/>
      <point x="392" y="-166"/>
      <point x="189" y="-199" type="curve" smooth="yes"/>
      <point x="39" y="-224"/>
      <point x="26" y="-46"/>
      <point x="48" y="-27" type="curve" smooth="yes"/>
      <point x="109" y="26"/>
      <point x="114" y="-111"/>
      <point x="167" y="-111" type="curve" smooth="yes"/>
      <point x="301" y="-111"/>
      <point x="178" y="546"/>
    </contour>
  </outline>
</glyph>
<glyph name="k" format="1">
  <advance width="507"/>
  <unicode hex="006B"/>
  <outline>
    <contour>
      <point x="90" y="833" type="curve"/>
      <point x="212" y="819"/>
      <point x="152.527" y="531.583"/>
      <point x="194.528" y="491.583" type="curve"/>
      <point x="221.057" y="517.166"/>
      <point x="327.437" y="664.95"/>
      <point x="382.218" y="655.475" type="curve" smooth="yes"/>
      <point x="514.017" y="632.68"/>
      <point x="180.219" y="413.475"/>
      <point x="210.218" y="239.476" type="curve" smooth="yes"/>
      <point x="226.95" y="142.429"/>
      <point x="438.437" y="244.95"/>
      <point x="460.218" y="139.476" type="curve" smooth="yes"/>
      <point x="475.917" y="63.458"/>
      <point x="283.218" y="114.476"/>
      <point x="218.218" y="101.476" type="curve" smooth="yes"/>
      <point x="192.218" y="96.4756"/>
      <point x="254.218" y="-22.5249"/>
      <point x="152.218" y="0" type="curve" smooth="yes"/>
      <point x="44.3937" y="23.8109"/>
      <point x="95" y="191"/>
      <point x="86" y="372" type="curve" smooth="yes"/>
      <point x="79" y="513"/>
      <point x="64.9771" y="534.978"/>
      <point x="54.2178" y="639.475" type="curve" smooth="yes"/>
      <point x="44.5281" y="733.583"/>
      <point x="37.4938" y="825.067"/>
    </contour>
  </outline>
</glyph>
<glyph name="l" format="1">
  <advance width="303"/>
  <unicode hex="006C"/>
  <outline>
    <contour>
      <point x="88.293" y="424.385" type="curve" smooth="yes"/>
      <point x="94.293" y="668.385"/>
      <point x="96.293" y="823.385"/>
      <point x="170.293" y="823.385" type="curve" smooth="yes"/>
      <point x="248.293" y="823.385"/>
      <point x="201.158" y="621.533"/>
      <point x="204.158" y="377.533" type="curve" smooth="yes"/>
      <point x="208.158" y="47.5332"/>
      <point x="276.293" y="7"/>
      <point x="171.293" y="0" type="curve" smooth="yes"/>
      <point x="112.293" y="-4"/>
      <point x="80.293" y="94.3848"/>
    </contour>
  </outline>
</glyph>
<glyph name="m" format="1">
  <advance width="710"/>
  <unicode hex="006D"/>
  <outline>
    <contour>
      <point x="259.845" y="567.296" type="curve" smooth="yes"/>
      <point x="305.845" y="567.296"/>
      <point x="305.845" y="487.5"/>
      <point x="351.845" y="491.5" type="curve" smooth="yes"/>
      <point x="399.845" y="495.5"/>
      <point x="447" y="575"/>
      <point x="516" y="575" type="curve" smooth="yes"/>
      <point x="641" y="575"/>
      <point x="606" y="363"/>
      <point x="624" y="236" type="curve" smooth="yes"/>
      <point x="637" y="149"/>
      <point x="685" y="21"/>
      <point x="630" y="29" type="curve" smooth="yes"/>
      <point x="534" y="43"/>
      <point x="547" y="156"/>
      <point x="538" y="252" type="curve" smooth="yes"/>
      <point x="529" y="347"/>
      <point x="505" y="501"/>
      <point x="477" y="473" type="curve" smooth="yes"/>
      <point x="391" y="387"/>
      <point x="406" y="293"/>
      <point x="412" y="176" type="curve" smooth="yes"/>
      <point x="417" y="79"/>
      <point x="413" y="0"/>
      <point x="367" y="0" type="curve" smooth="yes"/>
      <point x="267" y="0"/>
      <point x="314" y="156"/>
      <point x="312" y="253" type="curve" smooth="yes"/>
      <point x="310" y="347"/>
      <point x="246" y="479"/>
      <point x="224" y="465" type="curve" smooth="yes"/>
      <point x="146" y="413"/>
      <point x="153" y="312"/>
      <point x="155" y="214" type="curve" smooth="yes"/>
      <point x="157" y="118"/>
      <point x="175" y="-8"/>
      <point x="85" y="-8" type="curve" smooth="yes"/>
      <point x="14" y="-8"/>
      <point x="37.2454" y="160.12"/>
      <point x="39" y="270" type="curve" smooth="yes"/>
      <point x="40.4287" y="359.472"/>
      <point x="39.6394" y="421.167"/>
      <point x="93" y="493" type="curve" smooth="yes"/>
      <point x="135.476" y="550.179"/>
      <point x="206.845" y="567.296"/>
    </contour>
  </outline>
</glyph>
<glyph name="n" format="1">
  <advance width="618"/>
  <unicode hex="006E"/>
  <outline>
    <contour>
      <point x="181.516" y="390.9" type="curve"/>
      <point x="255.516" y="472.9"/>
      <point x="254" y="551"/>
      <point x="367" y="553" type="curve" smooth="yes"/>
      <point x="513" y="555"/>
      <point x="520.071" y="453.2"/>
      <point x="545.071" y="347.2" type="curve"/>
      <point x="562.071" y="241.2"/>
      <point x="555" y="153"/>
      <point x="557" y="79" type="curve" smooth="yes"/>
      <point x="558.189" y="34.9854"/>
      <point x="535" y="-16"/>
      <point x="496" y="-16" type="curve" smooth="yes"/>
      <point x="410" y="-16"/>
      <point x="437.071" y="69.3623"/>
      <point x="437.071" y="131.2" type="curve" smooth="yes"/>
      <point x="437.071" y="252.688"/>
      <point x="437.516" y="418.9"/>
      <point x="388.516" y="438.9" type="curve" smooth="yes"/>
      <point x="331.255" y="462.272"/>
      <point x="244.516" y="292.9"/>
      <point x="223.516" y="218.9" type="curve" smooth="yes"/>
      <point x="192.516" y="109.9"/>
      <point x="230" y="19"/>
      <point x="168" y="7" type="curve" smooth="yes"/>
      <point x="76" y="-10"/>
      <point x="79.9531" y="48.9395"/>
      <point x="76.5156" y="196.9" type="curve" smooth="yes"/>
      <point x="75.0312" y="260.8"/>
      <point x="75" y="315"/>
      <point x="75" y="402" type="curve" smooth="yes"/>
      <point x="75" y="470.996"/>
      <point x="30.5091" y="575.9"/>
      <point x="107.516" y="575.9" type="curve" smooth="yes"/>
      <point x="160.516" y="575.9"/>
      <point x="167.516" y="472.9"/>
    </contour>
  </outline>
</glyph>
<glyph name="o" format="1">
  <advance width="514"/>
  <unicode hex="006F"/>
  <outline>
    <contour>
      <point x="210" y="299" type="curve" smooth="yes"/>
      <point x="194" y="193"/>
      <point x="225" y="104"/>
      <point x="271" y="102" type="curve" smooth="yes"/>
      <point x="317" y="100"/>
      <point x="340" y="190"/>
      <point x="345" y="297" type="curve" smooth="yes"/>
      <point x="350" y="404"/>
      <point x="358" y="459.461"/>
      <point x="312" y="461.461" type="curve" smooth="yes"/>
      <point x="266" y="463.461"/>
      <point x="227" y="407"/>
    </contour>
    <contour>
      <point x="72" y="227" type="curve" smooth="yes"/>
      <point x="72" y="350"/>
      <point x="107" y="535.461"/>
      <point x="287" y="516.461" type="curve"/>
      <point x="300" y="529.461"/>
      <point x="272" y="574.461"/>
      <point x="271" y="596.461" type="curve" smooth="yes"/>
      <point x="270" y="624.461"/>
      <point x="296" y="628.461"/>
      <point x="312" y="627.461" type="curve" smooth="yes"/>
      <point x="406" y="620.461"/>
      <point x="459" y="459"/>
      <point x="459" y="291" type="curve" smooth="yes"/>
      <point x="459" y="123"/>
      <point x="360" y="-24"/>
      <point x="260" y="-5" type="curve" smooth="yes"/>
      <point x="157" y="15"/>
      <point x="72" y="59"/>
    </contour>
  </outline>
</glyph>
<glyph name="p" format="1">
  <advance width="550"/>
  <unicode hex="0070"/>
  <outline>
    <contour>
      <point x="100" y="504" type="curve" smooth="yes"/>
      <point x="147" y="547"/>
      <point x="137" y="475"/>
      <point x="190" y="489" type="curve" smooth="yes"/>
      <point x="214" y="496"/>
      <point x="207" y="588"/>
      <point x="333" y="594" type="curve" smooth="yes"/>
      <point x="391" y="597"/>
      <point x="512.139" y="463.014"/>
      <point x="449.139" y="250.014" type="curve" smooth="yes"/>
      <point x="392.139" y="57.0137"/>
      <point x="273" y="17"/>
      <point x="261" y="16" type="curve" smooth="yes"/>
      <point x="173" y="11"/>
      <point x="296.139" y="-230.986"/>
      <point x="186.139" y="-210.986" type="curve" smooth="yes"/>
      <point x="73.6279" y="-190.53"/>
      <point x="126" y="29"/>
      <point x="115" y="219" type="curve" smooth="yes"/>
      <point x="107" y="355"/>
      <point x="49" y="456"/>
    </contour>
    <contour>
      <point x="232" y="322" type="curve" smooth="yes"/>
      <point x="220" y="197"/>
      <point x="218" y="135"/>
      <point x="241" y="142" type="curve" smooth="yes"/>
      <point x="253" y="146"/>
      <point x="310.139" y="141.014"/>
      <point x="340.139" y="259.014" type="curve" smooth="yes"/>
      <point x="370.139" y="377.014"/>
      <point x="336" y="478"/>
      <point x="313" y="484" type="curve" smooth="yes"/>
      <point x="290" y="490"/>
      <point x="244" y="444"/>
    </contour>
  </outline>
</glyph>
<glyph name="q" format="1">
  <advance width="482"/>
  <unicode hex="0071"/>
  <outline>
    <contour>
      <point x="163" y="282" type="curve" smooth="yes"/>
      <point x="146" y="217"/>
      <point x="226" y="199"/>
      <point x="257" y="197" type="curve" smooth="yes"/>
      <point x="288" y="195"/>
      <point x="295" y="195"/>
      <point x="300" y="262" type="curve" smooth="yes"/>
      <point x="305" y="329"/>
      <point x="297" y="441"/>
      <point x="266" y="443" type="curve" smooth="yes"/>
      <point x="235" y="445"/>
      <point x="180" y="347"/>
    </contour>
    <contour>
      <point x="73" y="343" type="curve" smooth="yes"/>
      <point x="107" y="474"/>
      <point x="214" y="594"/>
      <point x="301" y="578" type="curve" smooth="yes"/>
      <point x="344" y="570"/>
      <point x="399" y="431"/>
      <point x="413" y="295" type="curve" smooth="yes"/>
      <point x="419" y="234"/>
      <point x="426" y="86"/>
      <point x="423" y="0" type="curve" smooth="yes"/>
      <point x="419" y="-104"/>
      <point x="427" y="-100"/>
      <point x="450" y="-100" type="curve" smooth="yes"/>
      <point x="504" y="-100"/>
      <point x="548" y="-43"/>
      <point x="566" y="-96" type="curve"/>
      <point x="576" y="-133"/>
      <point x="439" y="-205"/>
      <point x="398" y="-205" type="curve" smooth="yes"/>
      <point x="309" y="-205"/>
      <point x="306" y="-10"/>
      <point x="306" y="98" type="curve" smooth="yes"/>
      <point x="306" y="137"/>
      <point x="194" y="85"/>
      <point x="173" y="87" type="curve" smooth="yes"/>
      <point x="83" y="97"/>
      <point x="39" y="212"/>
    </contour>
  </outline>
</glyph>
<glyph name="r" format="1">
  <advance width="481"/>
  <unicode hex="0072"/>
  <outline>
    <contour>
      <point x="132.019" y="0" type="curve" smooth="yes"/>
      <point x="89.0651" y="0"/>
      <point x="99" y="162.668"/>
      <point x="99" y="270" type="curve" smooth="yes"/>
      <point x="99" y="385.978"/>
      <point x="63" y="579.163"/>
      <point x="106.019" y="567.296" type="curve" smooth="yes"/>
      <point x="193.019" y="543.296"/>
      <point x="188.1" y="467.479"/>
      <point x="196.694" y="425" type="curve"/>
      <point x="215.698" y="451.177"/>
      <point x="259.749" y="481.958"/>
      <point x="307.694" y="497" type="curve" smooth="yes"/>
      <point x="358.694" y="513"/>
      <point x="424.773" y="504.036"/>
      <point x="449.694" y="449" type="curve" smooth="yes"/>
      <point x="473.694" y="396"/>
      <point x="332.694" y="441"/>
      <point x="253" y="340" type="curve" smooth="yes"/>
      <point x="206.77" y="281.411"/>
      <point x="205.694" y="241"/>
      <point x="210" y="138" type="curve" smooth="yes"/>
      <point x="211.926" y="91.9202"/>
      <point x="209.019" y="0"/>
    </contour>
  </outline>
</glyph>
<glyph name="s" format="1">
  <advance width="394"/>
  <unicode hex="0073"/>
  <outline>
    <contour>
      <point x="90.0381" y="306.981" type="curve" smooth="yes"/>
      <point x="53.0371" y="436.982"/>
      <point x="100.532" y="560.49"/>
      <point x="205.532" y="573.49" type="curve" smooth="yes"/>
      <point x="230.532" y="576.49"/>
      <point x="342.532" y="513.49"/>
      <point x="331.532" y="421.49" type="curve" smooth="yes"/>
      <point x="325.532" y="368.49"/>
      <point x="256.532" y="469.49"/>
      <point x="227.532" y="441.49" type="curve" smooth="yes"/>
      <point x="197.532" y="411.49"/>
      <point x="207.038" y="329.981"/>
      <point x="211.038" y="307.981" type="curve" smooth="yes"/>
      <point x="232.038" y="177.981"/>
      <point x="323.038" y="169.981"/>
      <point x="264.038" y="75.9814" type="curve" smooth="yes"/>
      <point x="241.038" y="38.9814"/>
      <point x="120.532" y="-30.5098"/>
      <point x="72.5322" y="15.4902" type="curve" smooth="yes"/>
      <point x="10.5322" y="75.4902"/>
      <point x="146.038" y="69.9814"/>
      <point x="162.038" y="147.981" type="curve" smooth="yes"/>
      <point x="172.038" y="193.981"/>
      <point x="110.495" y="235.104"/>
    </contour>
  </outline>
</glyph>
<glyph name="t" format="1">
  <advance width="500"/>
  <unicode hex="0074"/>
  <outline>
    <contour>
      <point x="44" y="441" type="curve" smooth="yes"/>
      <point x="23.0654" y="484.206"/>
      <point x="127" y="482"/>
      <point x="245" y="497" type="curve" smooth="yes"/>
      <point x="327" y="507"/>
      <point x="451.64" y="524.646"/>
      <point x="446" y="501" type="curve" smooth="yes"/>
      <point x="430.224" y="434.855"/>
      <point x="337.866" y="391"/>
      <point x="218.866" y="391" type="curve" smooth="yes"/>
      <point x="99.8662" y="391"/>
      <point x="71.1338" y="385"/>
    </contour>
    <contour>
      <point x="179.866" y="365" type="curve" smooth="yes"/>
      <point x="168.866" y="595"/>
      <point x="164.521" y="771.377"/>
      <point x="260.742" y="818.438" type="curve" smooth="yes"/>
      <point x="300.483" y="837.875"/>
      <point x="268.866" y="691"/>
      <point x="279.866" y="461" type="curve" smooth="yes"/>
      <point x="290.866" y="231"/>
      <point x="310" y="0"/>
      <point x="280" y="0" type="curve" smooth="yes"/>
      <point x="227" y="0"/>
      <point x="197" y="53"/>
      <point x="190" y="133" type="curve" smooth="yes"/>
      <point x="183" y="217"/>
      <point x="181.866" y="313"/>
    </contour>
  </outline>
</glyph>
<glyph name="u" format="1">
  <advance width="663"/>
  <unicode hex="0075"/>
  <outline>
    <contour>
      <point x="276" y="162" type="curve" smooth="yes"/>
      <point x="344" y="162"/>
      <point x="428" y="244"/>
      <point x="439" y="330" type="curve" smooth="yes"/>
      <point x="452" y="440"/>
      <point x="388" y="610"/>
      <point x="483" y="580" type="curve" smooth="yes"/>
      <point x="574" y="551"/>
      <point x="544" y="412"/>
      <point x="551" y="290" type="curve" smooth="yes"/>
      <point x="560" y="145"/>
      <point x="628" y="-8"/>
      <point x="555" y="5" type="curve" smooth="yes"/>
      <point x="423" y="28"/>
      <point x="497" y="200"/>
      <point x="456" y="176" type="curve"/>
      <point x="416" y="120"/>
      <point x="288" y="7"/>
      <point x="229" y="31" type="curve" smooth="yes"/>
      <point x="118" y="76"/>
      <point x="138" y="177"/>
      <point x="125" y="282" type="curve" smooth="yes"/>
      <point x="112" y="390"/>
      <point x="65" y="627"/>
      <point x="165" y="557" type="curve" smooth="yes"/>
      <point x="276" y="480"/>
      <point x="160" y="162"/>
    </contour>
  </outline>
</glyph>
<glyph name="v" format="1">
  <advance width="465"/>
  <unicode hex="0076"/>
  <outline>
    <contour>
      <point x="200" y="146" type="curve" smooth="yes"/>
      <point x="234" y="106"/>
      <point x="226" y="293"/>
      <point x="248" y="401" type="curve" smooth="yes"/>
      <point x="266" y="490"/>
      <point x="286" y="581"/>
      <point x="383" y="581" type="curve" smooth="yes"/>
      <point x="432" y="581"/>
      <point x="469" y="483"/>
      <point x="390" y="500" type="curve"/>
      <point x="345" y="449"/>
      <point x="335" y="356"/>
      <point x="331" y="301" type="curve" smooth="yes"/>
      <point x="322" y="177"/>
      <point x="340" y="7"/>
      <point x="231" y="0" type="curve" smooth="yes"/>
      <point x="164" y="-4"/>
      <point x="96" y="90"/>
      <point x="74" y="181" type="curve" smooth="yes"/>
      <point x="39" y="325"/>
      <point x="8" y="584"/>
      <point x="94" y="561" type="curve" smooth="yes"/>
      <point x="165" y="542"/>
      <point x="104" y="259"/>
    </contour>
  </outline>
</glyph>
<glyph name="w" format="1">
  <advance width="751"/>
  <unicode hex="0077"/>
  <outline>
    <contour>
      <point x="152" y="567" type="curve" smooth="yes"/>
      <point x="271" y="469"/>
      <point x="156.961" y="178"/>
      <point x="283.961" y="98" type="curve" smooth="yes"/>
      <point x="297.961" y="89"/>
      <point x="338" y="177"/>
      <point x="328" y="287" type="curve" smooth="yes"/>
      <point x="318" y="392"/>
      <point x="295" y="493"/>
      <point x="379" y="498" type="curve" smooth="yes"/>
      <point x="490" y="504"/>
      <point x="408" y="135"/>
      <point x="547" y="111" type="curve" smooth="yes"/>
      <point x="582" y="105"/>
      <point x="577" y="211"/>
      <point x="555" y="356" type="curve" smooth="yes"/>
      <point x="537" y="475"/>
      <point x="486.961" y="600"/>
      <point x="579.961" y="578" type="curve" smooth="yes"/>
      <point x="667.961" y="558"/>
      <point x="682" y="360"/>
      <point x="684" y="223" type="curve" smooth="yes"/>
      <point x="686" y="88"/>
      <point x="686" y="18"/>
      <point x="594" y="0" type="curve" smooth="yes"/>
      <point x="457" y="-27"/>
      <point x="447.961" y="58"/>
      <point x="415.961" y="88" type="curve"/>
      <point x="381.961" y="52"/>
      <point x="385.961" y="-22"/>
      <point x="268" y="-6" type="curve" smooth="yes"/>
      <point x="152.899" y="9.61209"/>
      <point x="121.139" y="125.699"/>
      <point x="98" y="240" type="curve" smooth="yes"/>
      <point x="72.3525" y="366.688"/>
      <point x="51" y="651"/>
    </contour>
  </outline>
</glyph>
<glyph name="x" format="1">
  <advance width="435"/>
  <unicode hex="0078"/>
  <outline>
    <contour>
      <point x="69" y="15" type="curve"/>
      <point x="166" y="5"/>
      <point x="176" y="163"/>
      <point x="219" y="275" type="curve" smooth="yes"/>
      <point x="239" y="327"/>
      <point x="275" y="412"/>
      <point x="333" y="448" type="curve"/>
      <point x="403" y="408"/>
      <point x="397" y="514"/>
      <point x="350" y="528" type="curve" smooth="yes"/>
      <point x="258" y="556"/>
      <point x="211" y="475"/>
      <point x="168" y="395" type="curve" smooth="yes"/>
      <point x="141" y="345"/>
      <point x="116" y="273"/>
      <point x="95" y="221" type="curve" smooth="yes"/>
      <point x="87" y="201"/>
      <point x="44" y="114"/>
      <point x="38" y="64" type="curve" smooth="yes"/>
      <point x="33" y="23"/>
      <point x="62" y="16"/>
    </contour>
    <contour>
      <point x="387" y="48" type="curve"/>
      <point x="411" y="57"/>
      <point x="327" y="129"/>
      <point x="318" y="139" type="curve" smooth="yes"/>
      <point x="210" y="258"/>
      <point x="195" y="536"/>
      <point x="119" y="537" type="curve" smooth="yes"/>
      <point x="19" y="538"/>
      <point x="120" y="263"/>
      <point x="200" y="116" type="curve" smooth="yes"/>
      <point x="237" y="48"/>
      <point x="315" y="25"/>
    </contour>
  </outline>
</glyph>
<glyph name="y" format="1">
  <advance width="577"/>
  <unicode hex="0079"/>
  <outline>
    <contour>
      <point x="141" y="498" type="curve" smooth="yes"/>
      <point x="250" y="458"/>
      <point x="124.136" y="94.4941"/>
      <point x="253" y="161" type="curve" smooth="yes"/>
      <point x="437.074" y="256"/>
      <point x="205.074" y="509"/>
      <point x="369.074" y="560" type="curve" smooth="yes"/>
      <point x="448.074" y="585"/>
      <point x="422.932" y="353.235"/>
      <point x="443.074" y="210" type="curve" smooth="yes"/>
      <point x="461.074" y="82"/>
      <point x="466.792" y="50.9941"/>
      <point x="469.074" y="-54" type="curve" smooth="yes"/>
      <point x="471.074" y="-146"/>
      <point x="442.074" y="-220"/>
      <point x="325.074" y="-239" type="curve" smooth="yes"/>
      <point x="248.074" y="-252"/>
      <point x="78.0381" y="-115.087"/>
      <point x="125.074" y="-100" type="curve" smooth="yes"/>
      <point x="231.074" y="-66"/>
      <point x="283.074" y="-199"/>
      <point x="345.074" y="-117" type="curve" smooth="yes"/>
      <point x="392.078" y="-54.834"/>
      <point x="367.074" y="15"/>
      <point x="353.074" y="107" type="curve"/>
      <point x="289.074" y="63"/>
      <point x="274.074" y="33"/>
      <point x="205.074" y="50" type="curve" smooth="yes"/>
      <point x="103.074" y="76"/>
      <point x="81.8126" y="176.432"/>
      <point x="67" y="280" type="curve" smooth="yes"/>
      <point x="54.2881" y="368.88"/>
      <point x="59" y="528"/>
    </contour>
  </outline>
</glyph>
<glyph name="z" format="1">
  <advance width="564"/>
  <unicode hex="007A"/>
  <outline>
    <contour>
      <point x="393" y="-75" type="curve"/>
      <point x="292.403" y="12.1816"/>
      <point x="50.5723" y="-64.9629"/>
      <point x="79.2861" y="42" type="curve" smooth="yes"/>
      <point x="112.362" y="165.216"/>
      <point x="239.377" y="282.954"/>
      <point x="231" y="453.964" type="curve" smooth="yes"/>
      <point x="227.58" y="523.781"/>
      <point x="14.1575" y="441.73"/>
      <point x="57" y="496.964" type="curve" smooth="yes"/>
      <point x="115.905" y="572.906"/>
      <point x="235.645" y="582.912"/>
      <point x="299.286" y="542" type="curve" smooth="yes"/>
      <point x="439.286" y="452"/>
      <point x="202.176" y="172.891"/>
      <point x="219.286" y="96" type="curve"/>
      <point x="277.286" y="66"/>
      <point x="471.563" y="53.6229"/>
      <point x="489" y="-51" type="curve" smooth="yes"/>
      <point x="513" y="-195"/>
      <point x="185.516" y="-359.554"/>
      <point x="162" y="-309" type="curve" smooth="yes"/>
      <point x="151.619" y="-286.685"/>
      <point x="400" y="-164.964"/>
    </contour>
  </outline>
</glyph>
<glyph name="braceleft" format="1">
  <advance width="471"/>
  <unicode hex="007B"/>
  <outline>
    <contour>
      <point x="210.836" y="778.562" type="curve" smooth="yes"/>
      <point x="158.616" y="748.625"/>
      <point x="152" y="600"/>
      <point x="150" y="488" type="curve" smooth="yes"/>
      <point x="148.927" y="427.895"/>
      <point x="70" y="421.098"/>
      <point x="70" y="372" type="curve" smooth="yes"/>
      <point x="70" y="326"/>
      <point x="145.135" y="269.776"/>
      <point x="150" y="236" type="curve" smooth="yes"/>
      <point x="167.805" y="112.383"/>
      <point x="143.131" y="19.1002"/>
      <point x="192.52" y="-40.7637" type="curve" smooth="yes"/>
      <point x="228.922" y="-84.8867"/>
      <point x="396" y="-114"/>
      <point x="400.46" y="-59.5498" type="curve" smooth="yes"/>
      <point x="401.872" y="-42.3117"/>
      <point x="305.166" y="-28.6455"/>
      <point x="262" y="28" type="curve" smooth="yes"/>
      <point x="237.874" y="59.6599"/>
      <point x="248.244" y="161.058"/>
      <point x="248" y="268" type="curve" smooth="yes"/>
      <point x="247.915" y="305.44"/>
      <point x="177.794" y="325.874"/>
      <point x="180" y="370" type="curve" smooth="yes"/>
      <point x="182" y="410"/>
      <point x="244" y="416"/>
      <point x="246" y="478" type="curve" smooth="yes"/>
      <point x="249.588" y="589.237"/>
      <point x="237.163" y="631.965"/>
      <point x="262" y="690" type="curve" smooth="yes"/>
      <point x="280.749" y="733.812"/>
      <point x="393.538" y="765.429"/>
      <point x="398" y="784" type="curve" smooth="yes"/>
      <point x="415.06" y="855.004"/>
      <point x="256.802" y="804.915"/>
    </contour>
  </outline>
</glyph>
<glyph name="bar" format="1">
  <advance width="238"/>
  <unicode hex="007C"/>
  <outline>
    <contour>
      <point x="74" y="399.354" type="curve" smooth="yes"/>
      <point x="74" y="651.386"/>
      <point x="63.0117" y="752.646"/>
      <point x="80.5059" y="788" type="curve" smooth="yes"/>
      <point x="98.8125" y="824.997"/>
      <point x="134.452" y="823.995"/>
      <point x="142.506" y="812" type="curve" smooth="yes"/>
      <point x="181.012" y="754.646"/>
      <point x="164" y="633.194"/>
      <point x="164" y="401.354" type="curve" smooth="yes"/>
      <point x="164" y="169.515"/>
      <point x="150" y="60"/>
      <point x="168" y="24" type="curve" smooth="yes"/>
      <point x="174.396" y="11.209"/>
      <point x="112.786" y="-21.3545"/>
      <point x="86" y="28" type="curve" smooth="yes"/>
      <point x="49.8164" y="94.6719"/>
      <point x="74" y="253.322"/>
    </contour>
  </outline>
</glyph>
<glyph name="braceright" format="1">
  <advance width="471"/>
  <unicode hex="007D"/>
  <outline>
    <contour>
      <point x="259.624" y="778.562" type="curve" smooth="yes"/>
      <point x="311.844" y="748.625"/>
      <point x="318.46" y="600"/>
      <point x="320.46" y="488" type="curve" smooth="yes"/>
      <point x="321.533" y="427.896"/>
      <point x="400.46" y="421.098"/>
      <point x="400.46" y="372" type="curve" smooth="yes"/>
      <point x="400.46" y="326"/>
      <point x="325.325" y="269.776"/>
      <point x="320.46" y="236" type="curve" smooth="yes"/>
      <point x="302.655" y="112.383"/>
      <point x="327.329" y="19.1006"/>
      <point x="277.94" y="-40.7637" type="curve" smooth="yes"/>
      <point x="241.538" y="-84.8867"/>
      <point x="74.46" y="-114"/>
      <point x="70" y="-59.5498" type="curve" smooth="yes"/>
      <point x="68.5879" y="-42.3115"/>
      <point x="165.294" y="-28.6455"/>
      <point x="208.46" y="28" type="curve" smooth="yes"/>
      <point x="232.586" y="59.6602"/>
      <point x="222.216" y="161.058"/>
      <point x="222.46" y="268" type="curve" smooth="yes"/>
      <point x="222.545" y="305.44"/>
      <point x="292.666" y="325.874"/>
      <point x="290.46" y="370" type="curve" smooth="yes"/>
      <point x="288.46" y="410"/>
      <point x="226.46" y="416"/>
      <point x="224.46" y="478" type="curve" smooth="yes"/>
      <point x="220.872" y="589.236"/>
      <point x="233.297" y="631.965"/>
      <point x="208.46" y="690" type="curve" smooth="yes"/>
      <point x="189.711" y="733.812"/>
      <point x="76.9219" y="765.429"/>
      <point x="72.46" y="784" type="curve" smooth="yes"/>
      <point x="55.4004" y="855.004"/>
      <point x="213.658" y="804.915"/>
    </contour>
  </outline>
</glyph>
<glyph name="asciitilde" format="1">
  <advance width="641"/>
  <unicode hex="007E"/>
  <outline>
    <contour>
      <point x="65.0508" y="255.852" type="curve" smooth="yes"/>
      <point x="59.8945" y="340.854"/>
      <point x="137" y="412"/>
      <point x="250" y="402" type="curve" smooth="yes"/>
      <point x="314.88" y="396.258"/>
      <point x="360.409" y="302.881"/>
      <point x="421" y="283" type="curve" smooth="yes"/>
      <point x="485" y="262"/>
      <point x="572.891" y="338.053"/>
      <point x="574" y="312" type="curve" smooth="yes"/>
      <point x="576" y="265"/>
      <point x="488.425" y="178.863"/>
      <point x="406" y="196" type="curve" smooth="yes"/>
      <point x="341.968" y="209.313"/>
      <point x="288.79" y="314.098"/>
      <point x="234" y="317" type="curve" smooth="yes"/>
      <point x="119.829" y="323.048"/>
      <point x="68.1025" y="208.273"/>
    </contour>
  </outline>
</glyph>
